<?xml version="1.0" encoding="UTF-8"?>
<svg id="Layer_1" data-name="Layer 1" xmlns="http://www.w3.org/2000/svg" viewBox="0 0 139.38 14.79">
  <defs>
    <style>
      .cls-1 {
        fill: #fff;
      }
    </style>
  </defs>
  <path class="cls-1" d="M5.92,8.88c0-.1-.02-.2-.05-.29s-.1-.17-.18-.25-.2-.15-.33-.21-.31-.12-.51-.18c-.25-.07-.48-.15-.71-.25s-.42-.22-.6-.37-.31-.31-.41-.5-.15-.41-.15-.66.05-.46.15-.65.24-.36.42-.5.39-.24.64-.32.51-.11.8-.11.57.04.81.13.46.21.63.36.31.34.41.55.15.45.15.7h-1.07c0-.13-.03-.25-.07-.35s-.1-.2-.18-.28-.18-.14-.3-.18-.26-.06-.42-.06c-.15,0-.28.02-.39.05s-.21.08-.29.15-.14.14-.18.23-.06.18-.06.28.03.2.08.29.13.16.23.23.22.13.37.19.31.11.49.16c.26.08.5.17.72.28s.41.24.56.39.28.32.37.51.13.4.13.64c0,.25-.05.47-.15.67s-.24.36-.42.49-.39.24-.63.3-.51.1-.8.1c-.18,0-.36-.02-.54-.05s-.35-.08-.51-.15-.31-.15-.46-.25-.26-.22-.37-.36-.18-.29-.24-.46-.09-.36-.09-.57h1.08c0,.17.04.32.09.44s.13.22.23.3.21.14.35.17.29.05.45.05c.15,0,.28-.02.39-.05s.21-.08.29-.14.14-.13.18-.22.06-.18.06-.28Z"/>
  <path class="cls-1" d="M11.26,7.88h-2.34v1.61h2.73v.89h-3.83v-5.69h3.82v.89h-2.72v1.43h2.34v.87Z"/>
  <path class="cls-1" d="M13.73,8.28v2.09h-1.1v-5.69h1.95c.31,0,.59.04.84.13s.46.21.64.38.31.35.41.58.14.47.14.75c0,.25-.05.49-.14.71s-.23.4-.41.56-.39.28-.64.37-.53.13-.84.13h-.85ZM13.73,7.39h.85c.16,0,.29-.02.41-.07s.21-.11.29-.19.13-.17.17-.28.06-.22.06-.33c0-.13-.02-.26-.06-.37s-.1-.21-.17-.3-.17-.15-.29-.2-.25-.07-.41-.07h-.85v1.82Z"/>
  <path class="cls-1" d="M21.55,5.57h-1.75v4.79h-1.1v-4.79h-1.73v-.89h4.59v.89Z"/>
  <path class="cls-1" d="M25.67,7.88h-2.34v1.61h2.73v.89h-3.83v-5.69h3.82v.89h-2.72v1.43h2.34v.87Z"/>
  <path class="cls-1" d="M28.31,4.68l.54,2.14.61-2.14h1.36v5.69h-1.01v-1.68l.05-2.66-.75,2.47h-.54l-.67-2.36.05,2.55v1.68h-1.01v-5.69h1.36Z"/>
  <path class="cls-1" d="M31.76,10.37v-5.69h1.91c.31,0,.59.03.85.09s.47.16.65.29.32.29.42.48.15.43.15.69c0,.27-.07.5-.21.71s-.34.37-.62.48c.16.04.31.1.43.19s.22.18.3.29.14.24.18.37.06.27.06.42c0,.27-.05.51-.14.72s-.23.38-.4.52-.39.25-.64.32-.53.11-.84.11h-2.07ZM32.86,7.07h.82c.3,0,.54-.07.7-.19s.25-.31.25-.55c0-.27-.08-.46-.25-.57s-.4-.17-.71-.18h-.81v1.49ZM32.86,7.86v1.62h.98c.3,0,.53-.08.69-.22s.24-.33.24-.57c0-.26-.07-.46-.21-.61s-.36-.22-.66-.22h-1.02Z"/>
  <path class="cls-1" d="M40.07,7.88h-2.34v1.61h2.73v.89h-3.83v-5.69h3.82v.89h-2.72v1.43h2.34v.87Z"/>
  <path class="cls-1" d="M43.3,8.24h-.83v2.12h-1.1v-5.69h1.91c.31,0,.6.04.86.11.25.07.47.18.65.33.18.14.32.32.42.54s.15.46.15.74c0,.2-.02.39-.07.55-.05.16-.12.31-.21.44s-.2.24-.32.34c-.13.1-.27.18-.42.25l1.22,2.35v.05h-1.18l-1.07-2.12ZM42.47,7.35h.81c.31,0,.55-.08.72-.24s.25-.37.25-.65-.08-.5-.25-.66-.41-.24-.73-.24h-.81v1.78Z"/>
  <path class="cls-1" d="M53.67,10.37h-1.1v-4.36l-1.44.52v-.95l2.48-.89h.06v5.69Z"/>
  <path class="cls-1" d="M58.98,8.25h.66v.88h-.66v1.23h-1.09v-1.23h-2.36l-.04-.68,2.39-3.77h1.1v3.57ZM56.56,8.25h1.34v-2.11l-.11.19-1.23,1.93Z"/>
  <path class="cls-1" d="M62.83,10.28c0,.15-.02.3-.06.46-.04.16-.1.31-.17.45s-.15.28-.25.41-.2.25-.31.35l-.57-.3c.05-.09.1-.19.14-.29s.08-.2.11-.3.06-.22.07-.34c.02-.12.03-.25.03-.39v-.91h1.02v.86Z"/>
  <path class="cls-1" d="M72.87,10.37h-1.1v-4.36l-1.44.52v-.95l2.48-.89h.06v5.69Z"/>
  <path class="cls-1" d="M75.07,7.57l.32-2.89h3.16v.92h-2.26l-.14,1.25c.08-.05.2-.09.34-.14s.32-.07.51-.07c.27,0,.52.04.73.13s.4.21.54.38c.15.16.26.36.34.6s.12.5.12.8c0,.25-.04.5-.11.73-.08.23-.19.43-.35.61s-.35.31-.59.41c-.24.1-.52.15-.84.15-.25,0-.48-.04-.71-.11-.23-.07-.43-.18-.61-.32-.18-.14-.32-.31-.43-.52-.11-.2-.17-.44-.18-.7h1.07c.03.25.12.44.27.57s.35.2.58.2c.15,0,.27-.03.37-.08.1-.05.19-.13.25-.23.06-.1.11-.21.14-.34.03-.13.04-.28.04-.43s-.02-.29-.06-.42c-.04-.13-.1-.24-.17-.33s-.18-.16-.29-.21-.26-.07-.41-.07c-.11,0-.2,0-.28.03s-.15.04-.21.07c-.06.03-.11.06-.16.1s-.09.08-.13.12l-.87-.21Z"/>
  <path class="cls-1" d="M82.04,10.28c0,.15-.02.3-.06.46-.04.16-.1.31-.17.45s-.15.28-.25.41-.2.25-.31.35l-.57-.3c.05-.09.1-.19.14-.29s.08-.2.11-.3.06-.22.07-.34c.02-.12.03-.25.03-.39v-.91h1.02v.86Z"/>
  <path class="cls-1" d="M89.16,8.92c0-.17.02-.33.07-.47.05-.14.12-.28.21-.4.09-.12.19-.24.32-.35.12-.11.26-.22.42-.32-.15-.23-.27-.45-.36-.66-.08-.21-.13-.42-.13-.64s.04-.43.11-.61c.07-.18.17-.34.31-.46s.29-.23.48-.29.4-.1.63-.1c.2,0,.37.04.53.11s.3.17.41.29.2.26.26.42.09.33.09.5c0,.13-.02.26-.06.38-.04.12-.1.23-.17.33-.07.1-.16.2-.26.29s-.2.18-.31.26l-.31.25.96,1.24c.08-.15.15-.31.19-.49.04-.18.07-.37.07-.57h.93c0,.36-.05.69-.14,1-.1.31-.24.58-.45.83l.73.94h-1.24l-.25-.32c-.2.13-.4.23-.62.3-.21.07-.45.1-.72.1s-.5-.04-.71-.11-.39-.18-.54-.32c-.15-.14-.26-.3-.34-.48s-.12-.39-.12-.62ZM90.91,9.58c.13,0,.27-.02.4-.05.13-.04.25-.09.38-.16l-1.03-1.34-.03.02c-.08.08-.14.15-.19.22-.05.07-.09.14-.12.21s-.05.13-.05.19c0,.06-.01.12-.01.17,0,.1.02.2.05.29s.08.17.13.23c.06.06.13.11.21.15s.17.05.27.05ZM90.67,6.07c0,.12.02.24.07.35.05.12.11.24.2.38l.36-.27c.08-.05.14-.11.18-.16.04-.06.07-.11.09-.16.02-.05.03-.1.03-.14v-.1c0-.06,0-.12-.03-.18-.02-.06-.04-.11-.08-.16-.03-.05-.08-.08-.12-.11-.05-.03-.1-.04-.16-.04-.09,0-.17.02-.24.05-.07.03-.12.07-.17.13-.04.05-.08.12-.1.19-.02.07-.03.15-.03.23Z"/>
  <path class="cls-1" d="M101.68,10.37h-1.1v-4.36l-1.44.52v-.95l2.48-.89h.06v5.69Z"/>
  <path class="cls-1" d="M106.7,4.63v.9h-.06c-.29,0-.54.04-.76.11-.22.08-.41.18-.56.32-.16.14-.28.3-.37.5s-.15.41-.17.64c.06-.07.13-.13.21-.19s.17-.12.26-.17.2-.09.32-.12c.11-.03.24-.05.37-.05.27,0,.51.05.71.15.2.1.37.24.51.42.13.18.24.38.3.61s.1.48.1.74c0,.28-.04.53-.13.77-.09.24-.21.44-.38.62s-.36.31-.6.41-.5.15-.79.15-.58-.06-.82-.17c-.25-.11-.45-.27-.62-.47-.17-.2-.3-.44-.39-.71-.09-.27-.14-.58-.14-.9v-.42c0-.45.06-.87.18-1.25.12-.38.3-.72.55-1s.54-.5.9-.66.77-.24,1.25-.24h.14ZM105.62,7.45c-.2,0-.37.05-.52.16-.15.1-.26.24-.34.4v.32c0,.21.02.39.06.55s.1.29.18.39.17.18.28.23c.11.05.22.08.35.08s.24-.03.35-.08c.1-.05.19-.13.27-.22.07-.09.13-.21.17-.33s.06-.27.06-.42-.02-.3-.06-.43-.1-.24-.17-.34c-.07-.09-.16-.17-.27-.22s-.23-.08-.36-.08Z"/>
  <path class="cls-1" d="M110.58,10.2c0,.12-.02.25-.04.38-.03.13-.07.27-.13.4s-.13.26-.21.38c-.08.12-.18.23-.29.32l-.45-.25c.12-.18.21-.38.27-.58.05-.21.08-.42.08-.64v-.7h.79v.69Z"/>
  <path class="cls-1" d="M121.84,10.37h-3.73v-.52l1.86-2.07c.17-.18.31-.35.42-.49.11-.14.2-.28.27-.4.07-.12.12-.24.14-.34.03-.11.04-.22.04-.33,0-.14-.02-.27-.07-.4-.05-.12-.11-.23-.2-.32-.09-.09-.19-.16-.32-.22-.12-.05-.26-.08-.42-.08-.19,0-.36.03-.49.08-.14.05-.26.13-.35.23-.09.1-.16.22-.21.37-.05.14-.07.3-.07.48h-.73c0-.24.04-.47.12-.68.08-.21.2-.4.36-.56.16-.16.35-.29.58-.38.23-.09.49-.14.78-.14.27,0,.51.04.72.12s.4.19.54.33.26.31.34.5c.08.19.12.4.12.63,0,.17-.03.34-.09.5-.06.17-.13.33-.23.49s-.21.32-.34.48-.27.31-.41.47l-1.53,1.66h2.86v.59Z"/>
  <path class="cls-1" d="M126.72,8.19c0,.36-.04.68-.12.96-.08.28-.2.52-.36.71s-.35.34-.57.44-.49.15-.78.15-.55-.05-.78-.15c-.23-.1-.42-.24-.58-.44-.16-.19-.28-.43-.37-.71-.08-.28-.13-.6-.13-.96v-1.33c0-.36.04-.68.12-.96.08-.28.2-.52.36-.71.16-.19.35-.34.58-.44.23-.1.49-.15.78-.15s.55.05.78.15c.23.1.42.25.58.44.16.19.28.43.36.71.08.28.12.6.12.96v1.33ZM123.76,8.05l2.21-1.7c-.04-.38-.15-.67-.33-.86-.18-.2-.44-.29-.77-.29-.38,0-.66.13-.84.38-.18.26-.27.63-.27,1.12v1.35ZM125.99,7.04l-2.21,1.69c.04.37.16.65.34.84.18.19.44.29.76.29.38,0,.66-.13.84-.39.18-.26.27-.64.27-1.12v-1.3Z"/>
  <path class="cls-1" d="M131.44,10.37h-3.73v-.52l1.86-2.07c.17-.18.31-.35.42-.49.11-.14.2-.28.27-.4.07-.12.12-.24.14-.34.03-.11.04-.22.04-.33,0-.14-.02-.27-.07-.4-.05-.12-.11-.23-.2-.32-.09-.09-.19-.16-.32-.22-.12-.05-.26-.08-.42-.08-.19,0-.36.03-.49.08-.14.05-.26.13-.35.23-.09.1-.16.22-.21.37-.05.14-.07.3-.07.48h-.73c0-.24.04-.47.12-.68.08-.21.2-.4.36-.56.16-.16.35-.29.58-.38.23-.09.49-.14.78-.14.27,0,.51.04.72.12s.4.19.54.33.26.31.34.5c.08.19.12.4.12.63,0,.17-.03.34-.09.5-.06.17-.13.33-.23.49s-.21.32-.34.48-.27.31-.41.47l-1.53,1.66h2.86v.59Z"/>
  <path class="cls-1" d="M135.42,4.68v.65h-.06c-.24,0-.45.02-.64.07-.19.05-.36.12-.5.2-.14.09-.27.19-.37.31-.1.12-.19.25-.26.39-.07.14-.12.29-.16.44-.04.15-.06.31-.07.47.07-.08.15-.16.23-.22.09-.07.18-.13.29-.18.1-.05.21-.09.33-.12.12-.03.24-.04.37-.04.28,0,.53.05.73.16.21.11.38.25.51.43s.23.38.29.6.09.45.09.68c0,.27-.04.52-.11.75s-.19.44-.33.62-.33.31-.55.42c-.22.1-.47.15-.76.15-.21,0-.39-.03-.56-.09-.17-.06-.32-.14-.46-.24-.14-.1-.25-.22-.36-.37s-.19-.29-.25-.45-.12-.33-.15-.5c-.03-.17-.05-.35-.05-.52v-.34c0-.26.02-.52.05-.78.03-.26.09-.51.17-.75s.18-.46.32-.67.3-.39.5-.54c.2-.15.44-.27.72-.36.28-.09.6-.13.98-.13h.06ZM134.47,7.24c-.12,0-.24.02-.36.06-.12.04-.22.09-.32.16-.1.07-.19.16-.26.25-.08.1-.14.21-.18.33v.24c0,.25.03.47.09.67.06.19.14.36.24.49s.22.23.35.3.27.1.42.1c.17,0,.32-.03.45-.1.13-.07.24-.16.33-.27s.16-.25.2-.41c.04-.16.07-.33.07-.52,0-.17-.02-.33-.06-.49-.04-.16-.11-.3-.19-.42s-.19-.22-.32-.29c-.13-.07-.28-.11-.46-.11Z"/>
</svg>