<?xml version="1.0" encoding="UTF-8"?>
<svg id="Layer_1" data-name="Layer 1" xmlns="http://www.w3.org/2000/svg" xmlns:xlink="http://www.w3.org/1999/xlink" viewBox="0 0 583.93 492.58">
  <defs>
    <style>
      .cls-1 {
        fill: url(#linear-gradient-8);
      }

      .cls-2 {
        fill: url(#linear-gradient-7);
      }

      .cls-3 {
        fill: url(#linear-gradient-5);
      }

      .cls-4 {
        fill: url(#linear-gradient-6);
      }

      .cls-5 {
        fill: url(#linear-gradient-9);
      }

      .cls-6 {
        fill: url(#linear-gradient-4);
      }

      .cls-7 {
        fill: url(#linear-gradient-3);
      }

      .cls-8 {
        fill: url(#linear-gradient-2);
      }

      .cls-9 {
        fill: url(#linear-gradient);
      }

      .cls-10 {
        fill: url(#linear-gradient-10);
      }

      .cls-11 {
        fill: url(#linear-gradient-11);
      }

      .cls-12 {
        fill: url(#linear-gradient-12);
      }

      .cls-13 {
        fill: url(#linear-gradient-13);
      }

      .cls-14 {
        fill: url(#linear-gradient-19);
      }

      .cls-15 {
        fill: url(#linear-gradient-14);
      }

      .cls-16 {
        fill: url(#linear-gradient-21);
      }

      .cls-17 {
        fill: url(#linear-gradient-20);
      }

      .cls-18 {
        fill: url(#linear-gradient-22);
      }

      .cls-19 {
        fill: url(#linear-gradient-15);
      }

      .cls-20 {
        fill: url(#linear-gradient-16);
      }

      .cls-21 {
        fill: url(#linear-gradient-17);
      }

      .cls-22 {
        fill: url(#linear-gradient-18);
      }
    </style>
    <linearGradient id="linear-gradient" x1="11.5" y1="322.89" x2="455.28" y2="322.89" gradientUnits="userSpaceOnUse">
      <stop offset="0" stop-color="#7cc7ff"/>
      <stop offset=".41" stop-color="#3ee1c8"/>
      <stop offset=".66" stop-color="#7ebce1"/>
      <stop offset=".89" stop-color="#b29ff6"/>
      <stop offset="1" stop-color="#c794ff"/>
    </linearGradient>
    <linearGradient id="linear-gradient-2" x1="344.86" y1="356.87" x2="517.69" y2="356.87" xlink:href="#linear-gradient"/>
    <linearGradient id="linear-gradient-3" x1="62.4" y1="133.33" x2="310.79" y2="133.33" xlink:href="#linear-gradient"/>
    <linearGradient id="linear-gradient-4" x1="48.02" y1="330.19" x2="144.62" y2="330.19" xlink:href="#linear-gradient"/>
    <linearGradient id="linear-gradient-5" x1="198.8" y1="336.32" x2="293.31" y2="336.32" xlink:href="#linear-gradient"/>
    <linearGradient id="linear-gradient-6" x1="476.03" y1="316.32" x2="497.58" y2="316.32" xlink:href="#linear-gradient"/>
    <linearGradient id="linear-gradient-7" x1="54.16" y1="265.31" x2="62.2" y2="265.31" xlink:href="#linear-gradient"/>
    <linearGradient id="linear-gradient-8" x1="82.33" y1="280.42" x2="90.46" y2="280.42" xlink:href="#linear-gradient"/>
    <linearGradient id="linear-gradient-9" x1="19.98" y1="181.46" x2="54.2" y2="181.46" xlink:href="#linear-gradient"/>
    <linearGradient id="linear-gradient-10" x1="155.97" y1="322.58" x2="188.12" y2="322.58" xlink:href="#linear-gradient"/>
    <linearGradient id="linear-gradient-11" x1="303.07" y1="388.92" x2="334.32" y2="388.92" xlink:href="#linear-gradient"/>
    <linearGradient id="linear-gradient-12" x1="57.54" y1="330.16" x2="94.46" y2="330.16" xlink:href="#linear-gradient"/>
    <linearGradient id="linear-gradient-13" x1="79.05" y1="227.13" x2="477.15" y2="227.13" xlink:href="#linear-gradient"/>
    <linearGradient id="linear-gradient-14" x1="336.96" y1="159.79" x2="361.72" y2="159.79" xlink:href="#linear-gradient"/>
    <linearGradient id="linear-gradient-15" x1="299.14" y1="119.4" x2="330.74" y2="119.4" xlink:href="#linear-gradient"/>
    <linearGradient id="linear-gradient-16" x1="229.29" y1="187.62" x2="256.4" y2="187.62" xlink:href="#linear-gradient"/>
    <linearGradient id="linear-gradient-17" x1="183.03" y1="287.19" x2="215.22" y2="287.19" xlink:href="#linear-gradient"/>
    <linearGradient id="linear-gradient-18" x1="160.24" y1="279.86" x2="185.4" y2="279.86" xlink:href="#linear-gradient"/>
    <linearGradient id="linear-gradient-19" x1="325.2" y1="165.11" x2="339.33" y2="165.11" xlink:href="#linear-gradient"/>
    <linearGradient id="linear-gradient-20" x1="137.57" y1="281.26" x2="151.72" y2="281.26" xlink:href="#linear-gradient"/>
    <linearGradient id="linear-gradient-21" x1="379.82" y1="127.78" x2="574.39" y2="127.78" xlink:href="#linear-gradient"/>
    <linearGradient id="linear-gradient-22" x1="317.69" y1="55.56" x2="368.52" y2="55.56" xlink:href="#linear-gradient"/>
  </defs>
  <g>
    <path class="cls-9" d="M455.14,407.74l-1.39.53c-2.12.79-4.49,1.48-6.87,1.42l-3.18.94-8.67,2.37c-2.12.58-4.66,2.55-6.55,3.88l-10.04,7.05-12.43,7.87-10.51,6.33c-2.54-.12-5.17-2.43-7.54-3.92l-3.94-2.47,4.3-2.05c4.89-2.33,9.59-5.29,14.09-8.65l6.34-4.74c.55-1.2,1.03-1.94,2.17-3.11l-2,.21-11.28.48-3.56.89c-5.19,1.29-9.69,4.56-14.5,6.93l-4.96,2.43c-1.41.69-2.27-.03-3.55-.78l-8.88-5.24-8.12-4.95-9.47-5.52c-2.02-1.18-3.72-2.46-6.47-2.46,1.52-3.24,3.52-6.62,3.94-10.11l.85-7.09-1.11-5.77c-.17-.86-.66-2.67-.99-3.4l-2.07-4.51c-1.4-3.04-4.16-5.44-6.62-7.53-4.02-3.41-8.93-4.14-13.91-4.33-7.81-.3-16.85,5.29-20.46,13.68l-8.5-3.88-8.1-3.48-21.62-9.66-12.9-6.41-20.29-9.62-20.28-10.18-9-4.25c-.47-.57-.73-2.63-.48-3.55.76-2.77-.07-4.67-.67-7.17l-1.39-5.74c-3.53-9.55-11.16-15.06-20.2-16.56-7.43-1.23-15.64,2.57-20.78,8.94l-6.64-5.96-8.02-6.14-7.08-5.6-7.53-6.12-8.9-7.73-3.39-2.96-13.03-11.43-8.54-8.15-12.79-13.67-6.59-7.22-8.2-9.46-10.07-13.28-1.98-1.21c9.44-5.15,13.5-17.85,11.77-28.96-1.76-11.25-8.47-19.34-18.51-22.33.11-.08.22-.13.34-.2-.16-.05-.31-.12-.46-.21-6.8-2.02-16.77-.26-21.44,4.27-4.63,4.48-8.62,10.14-10.27,16.9-3.05,12.54,4.2,28.52,14.85,32.89l4.05,1.66c2.03.84,3.94.85,6.29.96,4.84.24,8.4-3.37,7.48.02,1.4,2.93,2.95,5.76,4.88,8.34l4.47,5.96,6.14,8.21,4.2,4.94,7.75,8.69,11.81,12.18,4.34,4.55,6.16,6.09,3.82,3.91,6.58,6.3c7.25,6.95,14.39,13.63,22.26,19.78l11.2,8.77,3.85,2.49,5.78,4.02c1.09.75-.42,3.34-.55,4.5-.54,4.82-.19,11.23,1.97,15l3.79,6.62c-.73.87-1,1.41-1.45,2.32l-9.92,20.28c-5.19-5.07-10.39-8.21-15.82-11.77l-8.84-5.81c-4.44-2.92-9.05-6.05-13.67-7.03l-2.74,7.45,6.81,5.08,7.32,4.9,8.91,6.12,8.66,6.39c1.8,1.33,3.2,2.04,5.66,2.95l-2.89,6.24-8.22,17.77-3.87,9.14-1.41,2.46-2.36-6.62-6.79-16.77-2.05-6.03-6.15-17.51-4.13-11.02c-1.29,1.48-2.45,3.15-3.79,3.95-1.33.73-3.16,1.49-2.56,4.03,1.63,6.89,3.8,13.73,6.46,20.48l8.24,20.93,2.7,6.86-3.96-5.07c-5.59-6.43-10.17-13.57-14.48-21.08l-9.46-16.47c-.38-.67-.63-1.57-1.09-1.69-1.79-.51-5.56,2.93-12.01.47.89,4.4,2.77,7.85,4.53,11.69,4.12,9.04,8.96,17.2,14.63,25.17,4.58,6.45,8.91,12.62,14.29,18.3l13.13,13.87c10.26,9.58,20.61,18.42,32.31,25.66l8.44,5.23c16.33,9.17,33.01,17.09,50.86,21.9l8.33,2.24,3.85.89,4.69,1.05,4.72.94,6.13,1.11,5.62.8,12.22,1.08,7.41.88,15.06-.11,7-.42,9.39-.86,7.35-.96,6.58-1.06,5.73-.93,4.98-1.06,3.8-.9,4.68-1.06,4.53-1.11,16.19-4.79,6.85-2.32,9.48-3.54,11.41-4.91c10.08-4.34,19.63-9.54,29.1-15.25l15.83-10.98c8.38-5.8,15.75-12.59,23.07-19.89l2.99-2.98,9.43-10.67c.18-.21.41-1.26.2-1.18l-.06.02ZM37.13,203.71c-11.11,0-20.12-9.91-20.12-22.13s9-22.13,20.12-22.13,20.12,9.91,20.12,22.13-9,22.13-20.12,22.13ZM340.45,416.85l22.63,14.09-10.32,4.53-10.35,4.64-8.55,3.95-15.38,6.87c-2.49.72-4.6,1.71-7.49,3.3l1.48-9.01.83-6.36.98-7.24.9-5.62.82-4.77c.23-1.35.13-2.44-.09-4.41l6.75-1.04c3.04-.46,5.63-1.59,8.2-3.38.96-.67,1.88-.01,2.77.51l6.82,3.97h0ZM318.73,368.51c10.29,0,18.63,9.18,18.63,20.5s-8.34,20.5-18.63,20.5-18.63-9.18-18.63-20.5,8.34-20.5,18.63-20.5ZM160.85,305.69c5.61-4.71,9.79-4.89,16.52-3.12,6.46,1.7,11.16,8.09,12.77,14.4,2.96,11.58-3.08,24.33-15.29,26.56-9.62,1.75-18.8-5.39-21.21-16.4-1.77-8.1,1.08-16.29,7.2-21.43h0ZM157.24,355.31l3.56-8.15,4.83,1.93c3.76,1.51,8.14,1.23,11.98.12.25.3.62.79.43.94l-1.01.78c-.58.45-1.39,1.11-1.62,1.64-.23.54.34,1.84.61,2.43l2.6,7.43,10.23,28.63-29.22-17.4-8.44-5.07,6.04-13.3v.02ZM137.02,399.54l7.67-17.2,2-4.04,19.54,11.78,6.39,3.87,5.65,3.46c1.25.03,2.21,0,3.56.73l-8.61,2.11-5.4,1.12-4.78,1-3.8.88-9.05,1.99-8.95,2-8.99,2.2,4.76-9.92h0ZM142.98,417.74l4.23-.94,4.76-.96,5.74-1.24,6.85-1.52,6.31-1.57,9.16-1.75,12.29-3.04,7.5,21.6,3.94,12.13,2.03,6.06-2.1-.79-21.76-8.51-34.1-14.35-6.46-2.7-3.54-1.32,5.16-1.12h0ZM211.81,466.76l-11.03-3.29-13.33-4.92-13.46-6.25c-8.36-3.88-16.37-7.92-23.92-13.59-3.82-2.87-7.05-5.78-11.63-7.89-.39-.31-.14-.97.33-.94l15.44,7.47,17.84,7.09,4.04,1.77,9.12,3.77,9.78,3.88,11.66,4.63,3.94,2.05,3.95,1.74,2.26,4.82c-2.03.21-3.34.12-4.98-.37h0ZM222.37,453.36l-3.98-2.66c-1.67-1.11-1.45-3.38-2.03-5.01l-8.23-23.38-3.38-9.63,6.77,4.87,10.97,7.01,4.15,2.68,10.35,6.57,8.18,5.29-6.79,5.76-10.33,8.1c-1.99,1.56-3.24,2.04-5.69.41h0ZM245.86,451.79l7.77-6.73c1.67-1.45,2.74-.3,4,.57l11.9,8.14,7.7,4.99c.25.16,1.05.29,1.26.35.22.05-.07.82-.3.78l-1-.18-4.86-.21-9.89-.98-7.92-1.07-6.64-.89c-2.15-.29-3.68-.74-5.75-1.54l3.73-3.23v-.02ZM292.04,472.88l-9.01,1.18-8.66.48-15.32.02-8.26-.59-8.33-.99-5.6-1.03-4.25-.89-5.64-1.18,3.56-3.5c1.71-1.68,3.54-2.17,5.85-1.65l4.03.89,6.16.45,7.22.79,5.94.58,7.38.3,15.56.12c4.74.04,9.28-.34,13.9.24-.34,1.86.33,2.72,1.6,3.89l-6.1.89h-.03ZM306.15,413.18c.37,1.68.11,3.7-.27,5.68l-1.05,5.42-2.24,15.98-1.01,7.73-.87,6.69-.92,4.95c-4.37-1.84-8.49-4.2-12.49-6.95l-7.85-5.19-16.44-10.85,18.17-16.5,6.18-6.09,4.42-3.86,4.1-3.88c.67-.63,1.1-.85,2.35-.89l-2.1-4.28c-.56-1.14-1.33-3.04-1.61-4.25l-.71-3.06-2.49,2.24-8.26,7.55-12.85,12.14-8.04,7.17-7.14,6.56c-.52.48-1.6,1.18-2.17,1.3-.66.13-1.86-1.05-2.48-1.44l-12.56-7.88-29.25-18.23,8.15-1.65,33.5-7.5,5.17-1.1,4.2-.93,4.69-1.06,6.17-1.72c1.55-.43,3.63-.34,4.68-1.61,1.29-1.58-4.23-1.87-7.71-4.77l-3.77-1.1c-1.27-.37-3.58-1.18-4.73-.96l-5.34.98-13.03,2.99-5.44,1.21-3.95.78-11.06,2.6-6.08,1.18-13.62,3.54-2.3-6.65-5.09-15.09-7.93-22.54c-.34-.97-1.64-1.72-2.7-2l5.13-3.53c1.71-1.19,3.22-3.11,4.55-5.04.6,1.8,2.01,2.28,3.63,3.05l13.26,6.42,24.99,12.16,37.49,17.38,8.69,3.43,6.36,2.96c2.63,1.23,5.59,2.37,8.24,2.97.08,5.54.76,9.97,3.02,14.34l1.57,3.06c2.29,3.23,5.34,5.65,8.7,8.2l-1.83-.08h-.02ZM375.16,449.43c-13.39,5.47-26.62,10.92-40.51,14.65l-8.52,2.29-4.82.99-4.98.99-6.61,1.28.84-5.1,12.17-4.33,12.81-5.48,34.07-15.63c1.11-.51,3.63-1.93,4.67-1.39l10.89,6.96-10,4.77h0Z"/>
    <path class="cls-8" d="M345.31,399.66c-1.03-.8-.04-3.29.3-4.4.69-2.32-.47-4.94,1.63-6.9.81-.75,2.42-.65,3.52-.39l4.38.99,7.34,1.09,9.57,1.23,9.21.86,26.36.71,12.03-.58,14.69-2.28,6.16-1.03,7.92-2.18c9.27-2.55,18.2-5.94,26.61-10.84l8.91-5.2c3.38-1.97,6.11-4.87,8.95-7.72,4.83-4.86,7.82-11.13,10.75-17.56,2-4.37,3.63-8.61,4.72-13.34l3.12-13.44,1.79-8.27c.34-1.58-.86-3.63,1.47-4.9l1.2,5.82c3.99,19.43,1.34,41.52-9.11,57.61-6.09,9.37-13.39,16.13-22.64,21.11l-14.49,6.76-16.56,5.45-5.13,1.17-4.68,1.02-6.16,1.05-6.1.93-8.91,1.01-5.64.52-6.76.24-16.58-.03-9.39-.96c-2.7-.28-4.96-.41-7.59-.78l-7.43-1.06-5.26-.94-4.13-1.06-4.65-1.04-4.32-.96c-1.59-.36-3.47-.44-5.08-1.7v-.02Z"/>
    <path class="cls-7" d="M115.76,125.61c-6.76,6.7-12.2,13.76-17.78,21.38-5.58,7.62-10.22,15.26-14.54,23.63l-4.6,8.94c-1.94,3.76-3.64,7.78-5.13,11.81l-2.98,8.1-5.53,16.98c-3.34-2.57-3.23-13.17-2.02-17.56l2.64-9.54,1.36-4.85,3.75-11.26c3.85-11.57,20.05-37.06,28.39-46.38l6.58-7.35c15.81-17.66,33.89-32.54,54.36-42.99l13.16-6.73c12.8-6.55,25.96-11.42,39.89-14.18l11.23-2.22,4.91-.84,5.36-.89,13.06-1.1c10.9-.92,21.49-.04,32.39,1.26l13.41,2.27,5.37,1.31,8.76,2.26c1.4.36,2.72.71,3,2.54l-12.29-2.05-4.68-.52-10.51-.9c-7.06-.6-14.07-.27-21.3-.29l-3.78.39-11.2,1.11-5.73.86-7.4,1.21-3.81.85-13.72,3.63c-11.45,3.03-22.41,7.18-33.2,12.35l-11.11,5.33-7.77,4.3-15.19,9.51-6.29,4.51c-4.26,3.05-8.12,6.33-11.92,10.09l-15.14,15.03h.02Z"/>
    <path class="cls-6" d="M143.56,319.68c.02-2.21-.97-3.64-2.47-4.86-2.67-2.17-4.42-1.62-7.8-.95l-5.24,1.04-3.9.94-12.85,2.9c-2.95.67-5.82,1.48-8.45,2.96-2.79-8.3-8.09-15.66-15.43-19.34-3.57-1.79-11.13-3.58-14.34-2.59l-8.87,2.72c-.5.15-1.03.23-1.55.09-.22.13-.46.25-.71.33-.06,0-.1.02-.16.02h-.02s.04,0,.07.01l-4.45,3.94-3.13,3.11c-5.21,6.77-7.08,15.63-5.88,24.27.65,4.66,2.07,8.51,4.2,12.57,3.17,6.03,8.59,9.88,14.52,12.28,3.22,1.3,6.34,2.07,9.72,1.61,6.05-.82,11.58-2.6,16.45-6.84l4.34-3.77,2.29-4.33c3.33-6.3,4.27-13.31,4.4-13.34l2.12-.54,24.91-6.11,13.3-3.67-1.07-2.44h0ZM75.9,353.82c-11.88,0-21.52-10.6-21.52-23.68s9.63-23.68,21.52-23.68,21.52,10.6,21.52,23.68-9.63,23.68-21.52,23.68Z"/>
    <path class="cls-3" d="M293.09,361.42c-1.69.06-3.27-.08-4.98-.73l-26.13-9.99-4.78-1.9-15.69-7.1-11.75-5.61-5.19-2.53-8.05-3.95-11.07-5.36c-2.53-1.23-4.68-2.88-6.64-5.04l.07-4.04c1.54-1.37,3.29-2.34,5.23-2.93l3.41-1.02,16.03.07c3.18.01,5.9,3.19,8.56,4.94l2.41-1.09,6.21.2,6.37,5.35,6.96,6.36c2.74,2.51,5.85,5.21,9,7.04,5.32-.4,9.63,1.1,14.21,4.02,2.46,1.57,6.28,1.7,8.44,4.01,2.7,2.89,3.72,7.34,5.39,11l2.03,4.48c.33.73.09,2.46-.05,3.81h0Z"/>
    <path class="cls-4" d="M486.74,356.15l-7.01,7.93-3.7,2.87c-.03-2.97,1.89-4.51,2.75-7.52l2.7-9.42.82-3.59.93-4.59,1.79-10.76,2.48-22.38.07-25.99.04-4.77c.02-2.39-.21-4.98-.5-7.39l-.58-4.82c1.77,2.31,2.66,5.08,3.6,7.9l2.3,6.9,1.12,4.18.89,4.29.91,3.67.95,5.03.89,6.73.37,14.14-.32,8.81-.95,5.09-1.04,4.44c-1.63,6.98-4.22,13.38-8.53,19.25h0Z"/>
    <path class="cls-2" d="M60.47,272.07l-.66,25.89c-1.32-2.41-4.41-23.02-4.83-25.38-.37-2.11-.35-6.67-.51-8.78-.54-7.23-.27-14.38-.11-21.79l1.08-5.06.82-4.24c.74-.22,1.46.77,1.96,1.64l3.52,6.12c1.06,4.7-.02,9.9-.42,14.82l-.22,7.35-.62,9.43h-.02Z"/>
    <path class="cls-1" d="M90.45,293.36l-.4,3.89-4.04-2.33c-1.05-.6-2.15-.94-3.68-1.26l.13-19.17,1.27-10.9c.61.37,1.74,1.18,2.05,1.73l2.07,3.79c1.26,3.68,1.01,7.58,1.53,11.41l.57,4.29.51,8.53h0Z"/>
    <ellipse class="cls-5" cx="37.09" cy="181.46" rx="17.11" ry="18.83"/>
    <ellipse class="cls-10" cx="172.05" cy="322.58" rx="16.08" ry="17.69"/>
    <ellipse class="cls-11" cx="318.69" cy="388.92" rx="15.63" ry="17.2"/>
    <ellipse class="cls-12" cx="76" cy="330.16" rx="18.46" ry="20.31"/>
    <g>
      <path class="cls-13" d="M362.39,145.22c-2.36-2.77-3.66-5.57-4.98-8.88-.71-1.8-1.64-3.77-2-6.03-.2-1.25,1.81-3.21,2.6-4.15,2.11-2.58,4.05-4.79,6.52-6.83,3.59-2.95,6.75-5.72,9.89-9.73l-5.7-2.54-8.39-2.67-7.99-2.37-18.06-4.39c.2-1.32-.08-2.66-.7-3.26-1.09-1.03-2.31-1.51-3.63-1.45l-8.82.33-7.21.74c-1.3.13-3.24.64-3.89,1.25l-.37,3.37c-.22,1.98-.99,3.96-1.67,5.88-1.98,5.63-4.76,6.95-10.02,7.65-4.12.55-8.21,2.06-12.14,3.49l-5.02,1.82c.22,4.59-1.96,7.71-3.38,11.63l-3.21,8.87c-5.39-.37-9.41-2.73-13.67-5.67-2.31-1.59-3.93-3.82-5.55-6.31l-3.35-5.13-2.48-3.32-5.5-6.86-.8-.95c-1.03-1.25,6.61-3.52,9.78-7.2l-5.65-6.98c-1.24-1.53-.94-5.53-3.45-6.45l-8.61.04c-2.75.01-4.66.19-7.07-1.28l-2.78-1.68c-2.71,3.12-5.64,2.59-8.1,4.25l-3.94,2.67-.52,1.55-1.88,1.08,4.49,2.14,8.54,4.43c3,1.56,5.14,3.76,6.04,7.23,1.39,5.34-.03,9.46-3.02,13.76l-2.79,4-.7,4.43c-1.72,2.4-4.89,2.96-7.54,2.14l-11.07-3.37c-2.55-.77-5.29-3.03-4.75-6.52l2.12-4.71c.21-2.17.32-2.9,2.51-4.3-2.61-2.78-5.78-1.9-8.44-4-2.76-.01-5.42.23-7.65-1.8-1.74-1.59-1.33-6.39.78-8.73l-3.74.56-4.11,2.37c-.83.56-1.29,2.76-1.84,4.05-1.27,3.01-5.04,5.31-7.96,4.38l-5.28-1.67-3.82.68c-.78.13-2.63.88-3.16,1.54l-2.44,3.07c-.8,1.01-.92,2.62-.87,3.48-.63.52-1.32,1.65-1.66,3.09,2.34.77,5.15,2,7.47,1.33l6.29-4.39c3.67-2.57,11.68-3.42,16.28-1.72l3.95,1.46c.71.26,1.96,1.32,2.11,2.08.2,1-.68,2.31-1.43,3.13l-4.42,4.91c-4.77,5.29-7.1-.71-11.79,3.08-1.88,1.53-4.06,3.26-5.55,5.15l-5.05,6.38c-1.99,2.52-3.92,5.29-5.27,8.33l7.3,5.72,4.58,4.23,4.48,4.46.17,6.3c.05,1.6-.94,5.24,1.1,5.96l8.33,2.94,2.49.81-1.17-4.42-1.85-7.34c-.45-1.78-1.16-3.96-.32-5.74.9-1.89,3.12-3.07,4.39-4.33,2.56-3.71,2.6-8.83,1.73-13.02l1.12-3.55,5.2-5.03,2.07-2.47c.25-.3.87-.85,1.18-1.03.39-.23.82,1.28.95,1.95h1.66c4.08,4.68,8.96,6.93,14.34,9.95l4.75-3.49,4.88-3.89c3.77,3.54,7.18,7.61,10.28,11.85l7.32,9.99,5.38,6.96,3.19,4.17c-2.04-.26-2.48.64-4.3,1.26l-4.26,1.47-20.94,9.98-5.87,2.35-4.71,1.79,4.84,4.54,6.52,5.12c1.39,1.09,2.36,1.34,3.71,3.1l-7.4,6.19-5.18,4.11c-3.99-.54-7.48-1.79-11.31-3.46l-5.55,5.99-19.78,19.87-6.42,5.56-.11,20.35-1.08,4.75c-.95.08-2.44-1.04-3.42-1.57-3.93-2.08-6.07-5.01-8.27-9.12l-1.71-3.2-3.21-5.84c-.67-.32-2.26.48-2.94,1.03l-12.83.16c-2.67.03-7.65,4.55-9.95,7.66l-4.77,6.48c-1.75,2.37-4.23,3.02-6.4,1.09l-9.26-8.25-5.21-5.01-7.55-7.29-5.97-6.25c-2.4-2.52-4.5-4.98-6.42-7.88-1.56-2.37-1.95-4.06-1.35-7.07l1-5.02c2.19-11,5.48-21.24,10.16-31.22l3.19-6.78c5.61-11.97,12.9-22.32,20.82-32.64,10.25-13.37,21.95-24.75,35.15-34.4l8.19-5.99c16.85-12.32,45.83-24.93,65.63-29.68l4.5-1.08,5.61-.97,7.5-1.1,6.28-.92,6.24-.46,12.66-.92,10.77.42,10.09.98,7.61.93,6.56.97,4.65,1.02,4.67,1.07,4.24.97,4.13,1,10.16,3.24c12.28,3.92,23.55,9.47,34.8,16.31,9.56,5.81,17.99,12.74,26.28,20.49l8.61,8.05,11.18,11.4,6.35,6.94,8.63,10.59,5.12,6.7,3.14,4.3,5.55,8.33,3.24,5.22c5.55,8.92,10.08,18.05,14.61,27.73,11.9,25.46,18.43,52.84,20.49,81.32l.04,20.7-.79,10.05-.75,6.99-.95,5.26-.97,6.68-.97,5.82-6,20.58c-.97,3.3-2.19,6.36-3.97,9.2l-4.8,2.22-17.72,5.27-3.83.92-4.5.81-6.12.94-7.49,1.02-17.02.42-5.8.49c-1.32.11-3.49-.23-4.79-.41-1.36-3.63-2.69-6.53-4.5-9.7l-3.34-5.87-2.18-5.67c-.51-1.3-.26-3.77.27-5.14l2.14-5.45c.89-2.28.24-3.34-1.36-4.98l-3.09-3.17-3.39-3.47-3.64-3.57c-.9-.72-2.6,1.44-3.4,2.32-2.82,3.1-6.84,3.81-10.69,3.72-5.14-.13-9.88.71-15,.94l-8.12.35c-2.88.85-4.46,1.27-6.82-.94l-3.7-3.47-6.02-7.38-5.54-6.78-12.75-15.23-4.34-5.25c.11-1.04,1.75-2.01,2.39-2.81l4.22-5.32v-26.06l4.34-4.11,8.42-7.74,8.48-7.13,6.81-5.9c3.07-2.66,5.88-3.71,9.76-4.44l4.68-.88,5.61-1.02,5.62-1.01,7.58-.94,5.43-1.2,8.88-1.68,5.14-.99c.88-.16,2.93-1.17,3.48-.42,1.41,1.95.88,4.69,1.49,6.71s1.11,2.91.22,5.46l5.4,2.28c5.13,2.17,10.32,3.79,15.19,6.56,1.74.99,3.8,1.13,4.59-1.1,1.16-3.32,3.77-5.9,6.74-7.46l3.91,1.59,9.92,4.57,9.76,5.27c1.12.61,2.71,1.31,3.36-.13s1.31-2.86,2.29-3.71c1.41-1.23,2.48-2.75,2.79-4.78l-5.84-4.11c-2.53-1.78-4.25-4.15-6.5-6.27l-4.23-3.99,3.54-5.31c.37-.55.2-1.71-.49-2.21l-5.15-3.7-4.02-2.85.84,1.54c.06-.26.11.6-.07.53l-1-.41-3.34,16.16c-.03.38-.12.62-.36,1.15l-4.16-1.34-2.82-.24-2.15-3.46-2.3-5.22c-3.65-8.27-7.99-15.75-13.47-22.76-.61-.78-1.61-2.36-2.39-2.3l-4.61,1.98c-.19.08-1.32.06-1.2.21l.81.96,3.99,4.46,2.35,3.07,5.72,7.5,4.01,5.87-4.03,3.78-3.05,2.65-6.61-6.67-9.36-8.79-7.81-7.31c-2.16-2.03-4.16-.66-5.86,1.23l-8.12,9.05-10.24,10.31c-1.5,1.51-2.65,2.42-4.7,2.71-4.49.63-10.94.33-14.22-1.37-2.45-1.28-2.76-2.4-3.49-4.85l-1.93-6.56-1.97-7.53-.47-6.11c3.66-2.2,7.02-4.4,11.03-5.36l6.94-1.65,8.01-.19c.27-.45.8-1.18.64-1.35l-.9-1.04-6.81-13.7,3.11-1.94c8,.24,15.31-7.12,19.96-14.22l4.66-7.09c1.49-2.27,2.74-2.99,5.29-2.26l4.03,1.15,6.25,1.91-.17-1.42c-.04-.33.76-.87.89-1.2l2.86-7.37,2.3-5.17c-3.02-2.18-5.72-4.68-8.51-7.64-2.73.05-1.74,5.67-3.39,8.71l-1.84,3.37c-10.01,4.46-12.46.43-19.06-7.33h.05Z"/>
      <path class="cls-15" d="M348.86,178.33c-2.49-1.68-1.85-4.09-2.02-6.48-.29-3.85-2.49-7.11-4.09-10.4l-2.94-6.05-1.41-3.27c-.53-1.09-1.44-2.51-1.42-3.75l.07-4.22,9.53-3.65,2.77,2.3c.62,4.01,2.13,7.45,4.14,10.79,1.33,4.07,3.82,7.36,6.74,10.21,1.37,1.34,1.97,3.1,1.08,5.07-2.71,6-8.04,12.42-12.43,9.45h0Z"/>
      <path class="cls-19" d="M320.68,125.56c-4.58,2.7-10.33,3.12-14.48-.79l-7.06-7.81,3.36-1.28,9.8-3.19,4.23-1.05c1.96-.48,4.48-.3,6.54.06,1.76.31,3.45,2.12,5.07,3.12,1.11.69,3.19,2.34,2.45,3.97s-2.98,2.87-4.47,3.74l-5.44,3.22h0Z"/>
      <path class="cls-20" d="M242.97,198.28c-.94.45-3.31.77-4.1.12l-6.33-6.34-3.24-3.81,14.32-7.76,6.62-4.02c1.47,5.64,6.39,8.79,6.16,15.4l-13.41,6.41h0Z"/>
      <path class="cls-21" d="M208.14,293.09l-15.89-.15c-1.73-.02-3.11-.33-4.81-.72-.87-.2-2.8-.05-3.39-.76-.79-.95-1.23-2.68-.91-3.91l.92,1.93,2.86-6.36c1.21-2.69,3.6-2.14,5.65-1.35l5.21,2.02,16.44,7.51c.28.12.82.68.97.92s-.16,1.05-.41,1.05h-1.21l-5.43-.16h0Z"/>
      <path class="cls-22" d="M184.05,283.07l-3.23,4.09-2.48,1.49c-.83-.01-3.3-.35-4.14-1.01-2.81-2.18-5.92-4.36-8.07-7.06l-5.88-7.4c3.59-2.84,7.46-2.69,11.42-.35l4.27,2.54,7.18,3.9-.17,1.2,1.43-.07c.34-.02.83.82,1,1.14.21.4-1.03,1.14-1.32,1.53h0Z"/>
      <path class="cls-14" d="M336.43,174.4l-5.64.26-5.18-.28c-.55-4.7-.82-9.9,1.11-14.21,1.15-2.58,6.93-6.91,9.69-3.13.79,1.08,2.46,2.86,2.67,4.04.8,4.73-.35,9.11-2.64,13.32Z"/>
      <path class="cls-17" d="M149.82,287.53c-2.93-3.76-7.97-2.58-12.26-7.59l3.77-1.88,4.81-2.02c1.3-.55,3.4-1.31,4.76-.97,1.17,1.03.75,3.52.73,4.94-.05,2.82-.35,5.41-1.82,7.52h0Z"/>
    </g>
  </g>
  <g>
    <path class="cls-16" d="M497.45,228.6c10.64,9.47,22.4,15.14,36.02,7.73,2.8-1.66,1.15-2.42-1.8-3.13-20.18-3.49-21.29-22.95-39.44-31.5-4.48-3.05-25.79-7.23-10.24-11.08,13.74-2.81,27.87-4.98,41.57-7.68,5.3-1,10.92-2,16.08-3.39,1.15-.35,1.6-.67,1.46-.96-.51-.68-3.24-.87-4.58-1.14-3.9-.56-7.78-1.3-11.67-1.93-15.82-2.11-31.66-4.72-47.59-6.74-4.29-.6-14.18-.95-6.74-6.54,5.68-4.3,12.18-8.23,18.57-11.53,12.08-6.03,26.79-7.49,36.76-17.22,1.17-1.36,3.41-3.42,3.07-4.88-.21-.19-.4-.16-.77-.12-1.4.29-3.09,1.21-4.49,1.85-3.83,2.04-8.67,1.96-13.6,1.91-6.67.02-14.08.04-20.64.06-8.96-.6-16.79,3.64-24.78,7.57-13.82,7.32-6.8-3.6-2.59-10.06,5.29-8.36,10.72-16.42,15.95-24.79,1.86-3.44,11.59-17.07,10.05-19.12-.75-.6-2.87.58-3.92,1.19-3.25,1.9-7,4.41-10.34,6.52-7.27,4.53-14.29,8.8-21.3,13.62-4.73,3.15-8.14,5.25-12.52,7.92-1.96,1.04-5.01,3.35-6.99,1.76-2.01-2.27-.97-6.78-.6-9.89,1.02-6.11,3.17-12.11,6.58-17.24,5.72-8.53,12.83-16.41,15.15-26.67.61-3.2,1.47-8.03-.23-10.7-1.4-.93-2.89,2.98-3.71,4.09-1.08,1.95-2.37,3.77-3.82,5.47-5.36,6.32-12.56,11.29-18.94,16.87-4.32,3.9-8.73,8.27-11.58,13.3-1.58,2.54-2.38,6.14-4.05,8.52-5.74,6.74-11.03-19.79-11.6-23.43-1.03-5.46-2.23-10.9-3.24-16.36-.6-2.84-.97-5.89-1.65-8.56-.3-1.1-.62-1.79-.98-1.89-.37-.12-.75.36-1.14,1.33-.69,1.89-1.28,4.31-1.74,6.38-2.26,9.4-4.33,18.79-6.61,28.09-3.51,12.14-5.31-5.53-4.96-9.31.36-8.28,2.65-16.38,3.99-24.53,2.6-14.26,6.07-28.29,9.35-42.38,3.42-15.05,4.88,8.02,6.13,11.58,3.25,16.25,5.81,32.76,8.64,49.09.84,4.42,2.08,13.21,7.79,7.23,3.2-3.11,6.76-6.82,9.86-9.41,5.43-4.74,12.89-8.89,15.74-15.65,3.17-7.95.38-17.58-3.67-24.51-3.4-7.44,13.17,2.24,14.84,3.87,9.98,7.33,13.13,21.02,10.77,32.76-1.89,8.72-8.02,17.21-13.48,24.61-2.56,3.22-12.46,18.3-1.29,9.99,4.6-3.33,11.6-7.97,16.61-11.08,16.75-9.99,33.95-22.32,49.7-32.99,1.7-1.08,3.54-1.94,2.29.87-11.47,19.56-23.16,39.54-35.47,58.64-.88,1.83-7.74,8.93-2.87,8.85,4.72-.47,10.08-1.75,15.05-1.37,19.09,1.14,34.26,2.62,38.41-20.58,1.81-5.55,5.02,1.55,6.69,4.87,5.14,10.61,4.32,23.5-4.21,32.11-8.29,8.89-20.71,12.1-31.87,15.94-17.89,5.9-10.31,6.78,2.66,8.64,17.63,3.21,35.34,5.78,52.9,9.35,4.03,1.09,25.49,2.19,11.02,6.24-12.94,4.22-25.76,8.24-39,11.37-6.06,1.48-12.2,2.62-18.05,3.68-2.66.43-6.57,1.54-4.51,4.78,2.69,3.9,6.36,7.53,9.01,11.58,7.37,10.62,15.6,14.45,28.46,14.05,2.72.11,6.61-.35,6.25,3.06-1.43,5.42-7.2,11.87-11.89,15.56-4.37,3.49-9.42,6.26-14.92,7.22-16.84,2.27-30.58-11.13-39.89-23.64-1.49-1.82-5.35-8.47-.42-7.33,4.1,1.23,9.18,6.13,12.85,9.08l.15.13h-.03Z"/>
    <path class="cls-18" d="M352.79,52.14c-3.33-5.25-4.15-4.93-3.76,1.97.06,5.6.56,11.72-2.68,16.14-.51.61-1.04.96-1.48.86-1.08-.26-1.45-2.52-1.73-3.8-.73-4-1.5-7.67-2.95-11.72-2.69-8.81-7.56-17.43-15.86-22.08-1.17-1.05-8.53-3.11-6.18-4.69,3.64-1.8,9.44-2.4,13.51-2.25,24.82,2.9,35.93,18.55,36.7,42.77.12,3.89.24,9.03.08,12.53-.18,2.54-.55,3.68-2.03,1.75-2.25-3.3-3.63-7.08-4.83-11.08-1.62-6.9-4.97-14.01-8.69-20.22l-.1-.17h0Z"/>
  </g>
</svg>