<?xml version="1.0" encoding="UTF-8"?>
<svg id="Layer_1" data-name="Layer 1" xmlns="http://www.w3.org/2000/svg" viewBox="0 0 601.71 516.63">
  <defs>
    <style>
      .cls-1 {
        fill: #fff;
      }
    </style>
  </defs>
  <g>
    <path class="cls-1" d="M488.32,395.49l-1.48.51c-2.26.77-4.79,1.44-7.33,1.38l-3.39.91-9.25,2.3c-2.26.56-4.97,2.47-6.99,3.76l-10.72,6.84-13.27,7.63-11.22,6.14c-2.71-.12-5.52-2.36-8.05-3.8l-4.21-2.4,4.59-1.99c5.22-2.26,10.24-5.13,15.04-8.39l6.77-4.6c.59-1.16,1.1-1.88,2.32-3.02l-2.13.2-12.04.47-3.8.86c-5.54,1.25-10.34,4.42-15.48,6.72l-5.29,2.36c-1.5.67-2.42-.03-3.79-.76l-9.48-5.08-8.67-4.8-10.11-5.35c-2.16-1.14-3.97-2.39-6.91-2.39,1.62-3.14,3.76-6.42,4.21-9.81l.91-6.88-1.18-5.6c-.18-.83-.7-2.59-1.06-3.3l-2.21-4.37c-1.49-2.95-4.44-5.28-7.07-7.3-4.29-3.31-9.53-4.02-14.85-4.2-8.34-.29-17.98,5.13-21.84,13.27l-9.07-3.76-8.65-3.38-23.08-9.37-13.77-6.22-21.66-9.33-21.64-9.87-9.61-4.12c-.5-.55-.78-2.55-.51-3.44.81-2.69-.07-4.53-.71-6.95l-1.48-5.57c-3.77-9.26-11.91-14.61-21.56-16.06-7.93-1.19-16.69,2.49-22.18,8.67l-7.09-5.78-8.56-5.96-7.56-5.43-8.04-5.94-9.5-7.5-3.62-2.87-13.91-11.09-9.11-7.91-13.65-13.26-7.03-7-8.75-9.18-10.75-12.88-2.11-1.17c10.08-5,14.41-17.31,12.56-28.09-1.88-10.91-9.04-18.76-19.76-21.66.12-.08.24-.13.36-.19-.17-.05-.33-.12-.49-.2-7.26-1.96-17.9-.25-22.88,4.14-4.94,4.35-9.2,9.84-10.96,16.39-3.26,12.16,4.48,27.66,15.85,31.9l4.32,1.61c2.17.81,4.2.82,6.71.93,5.17.23,8.97-3.27,7.98.02,1.49,2.84,3.15,5.59,5.21,8.09l4.77,5.78,6.55,7.96,4.48,4.79,8.27,8.43,12.61,11.81,4.63,4.41,6.58,5.91,4.08,3.79,7.02,6.11c7.74,6.74,15.36,13.22,23.76,19.19l11.95,8.51,4.11,2.42,6.17,3.9c1.16.73-.45,3.24-.59,4.36-.58,4.68-.2,10.89,2.1,14.55l4.05,6.42c-.78.84-1.07,1.37-1.55,2.25l-10.59,19.67c-5.54-4.92-11.09-7.96-16.88-11.42l-9.44-5.64c-4.74-2.83-9.66-5.87-14.59-6.82l-2.92,7.23,7.27,4.93,7.81,4.75,9.51,5.94,9.24,6.2c1.92,1.29,3.42,1.98,6.04,2.86l-3.08,6.05-8.77,17.24-4.13,8.87-1.5,2.39-2.52-6.42-7.25-16.27-2.19-5.85-6.56-16.98-4.41-10.69c-1.38,1.44-2.61,3.06-4.05,3.83-1.42.71-3.37,1.45-2.73,3.91,1.74,6.68,4.06,13.32,6.89,19.86l8.79,20.3,2.88,6.65-4.23-4.92c-5.97-6.24-10.85-13.16-15.46-20.45l-10.1-15.98c-.41-.65-.67-1.52-1.16-1.64-1.91-.49-5.93,2.84-12.82.46.95,4.27,2.96,7.61,4.83,11.34,4.4,8.77,9.56,16.68,15.61,24.41,4.89,6.26,9.51,12.24,15.25,17.75l14.01,13.45c10.95,9.29,22,17.87,34.48,24.89l9.01,5.07c17.43,8.89,35.23,16.58,54.28,21.24l8.89,2.17,4.11.86,5.01,1.02,5.04.91,6.54,1.08,6,.78,13.04,1.05,7.91.85,16.07-.11,7.47-.41,10.02-.83,7.84-.93,7.02-1.03,6.12-.9,5.31-1.03,4.06-.87,5-1.03,4.84-1.08,17.28-4.65,7.31-2.25,10.12-3.43,12.18-4.76c10.76-4.21,20.95-9.25,31.06-14.79l16.9-10.65c8.94-5.63,16.81-12.21,24.62-19.29l3.19-2.89,10.07-10.35c.19-.2.44-1.22.21-1.14ZM42.17,197.59c-11.86,0-21.47-9.61-21.47-21.47s9.61-21.47,21.47-21.47,21.47,9.61,21.47,21.47-9.61,21.47-21.47,21.47ZM365.91,404.33l24.15,13.67-11.01,4.39-11.05,4.5-9.13,3.83-16.42,6.66c-2.66.7-4.91,1.66-7.99,3.2l1.58-8.74.89-6.17,1.05-7.02.96-5.45.88-4.63c.25-1.31.14-2.37-.1-4.28l7.2-1.01c3.24-.45,6.01-1.54,8.75-3.28,1.02-.65,2.01-.01,2.96.49l7.28,3.85ZM342.73,357.44c10.98,0,19.88,8.9,19.88,19.88s-8.9,19.88-19.88,19.88-19.88-8.9-19.88-19.88,8.9-19.88,19.88-19.88ZM174.22,296.51c5.99-4.57,10.45-4.74,17.63-3.03,6.9,1.65,11.91,7.85,13.63,13.97,3.16,11.23-3.29,23.6-16.32,25.76-10.27,1.7-20.07-5.23-22.64-15.91-1.89-7.86,1.15-15.8,7.69-20.79ZM170.37,344.64l3.8-7.91,5.16,1.87c4.01,1.46,8.69,1.19,12.79.12.27.29.66.77.46.91l-1.08.76c-.62.44-1.48,1.08-1.73,1.59-.25.52.36,1.78.65,2.36l2.77,7.21,10.92,27.77-31.19-16.88-9.01-4.92,6.45-12.9ZM148.79,387.54l8.19-16.68,2.13-3.92,20.86,11.43,6.82,3.75,6.03,3.36c1.33.03,2.36,0,3.8.71l-9.19,2.05-5.76,1.09-5.1.97-4.06.85-9.66,1.93-9.55,1.94-9.6,2.13,5.08-9.62ZM155.15,405.19l4.51-.91,5.08-.93,6.13-1.2,7.31-1.47,6.74-1.52,9.78-1.7,13.12-2.95,8,20.95,4.21,11.77,2.17,5.88-2.24-.77-23.23-8.25-36.4-13.92-6.9-2.62-3.78-1.28,5.51-1.09ZM228.61,452.74l-11.77-3.19-14.23-4.77-14.37-6.06c-8.92-3.76-17.47-7.68-25.53-13.18-4.08-2.78-7.52-5.61-12.41-7.65-.42-.3-.15-.94.35-.91l16.48,7.25,19.04,6.88,4.31,1.72,9.73,3.66,10.44,3.76,12.45,4.49,4.21,1.99,4.22,1.69,2.41,4.68c-2.17.2-3.56.12-5.32-.36ZM239.88,439.74l-4.25-2.58c-1.78-1.08-1.55-3.28-2.17-4.86l-8.78-22.68-3.61-9.34,7.23,4.72,11.71,6.8,4.43,2.6,11.05,6.37,8.73,5.13-7.25,5.59-11.03,7.86c-2.12,1.51-3.46,1.98-6.07.4ZM264.95,438.22l8.29-6.53c1.78-1.41,2.92-.29,4.27.55l12.7,7.9,8.22,4.84c.27.16,1.12.28,1.35.34.23.05-.08.8-.32.76l-1.07-.17-5.19-.2-10.56-.95-8.45-1.04-7.09-.86c-2.3-.28-3.93-.72-6.14-1.49l3.98-3.13ZM314.24,458.68l-9.62,1.14-9.24.47-16.35.02-8.82-.57-8.89-.96-5.98-1-4.54-.86-6.02-1.14,3.8-3.39c1.83-1.63,3.78-2.1,6.24-1.6l4.3.86,6.57.44,7.71.77,6.34.56,7.88.29,16.61.12c5.06.04,9.9-.33,14.84.23-.36,1.8.35,2.64,1.71,3.77l-6.51.86ZM329.3,400.77c.39,1.63.12,3.59-.29,5.51l-1.12,5.26-2.39,15.5-1.08,7.5-.93,6.49-.98,4.8c-4.66-1.78-9.06-4.07-13.33-6.74l-8.38-5.03-17.55-10.52,19.39-16,6.6-5.91,4.72-3.74,4.38-3.76c.72-.61,1.17-.82,2.51-.86l-2.24-4.15c-.6-1.11-1.42-2.95-1.72-4.12l-.76-2.97-2.66,2.17-8.82,7.32-13.71,11.78-8.58,6.95-7.62,6.36c-.56.47-1.71,1.14-2.32,1.26-.7.13-1.98-1.02-2.65-1.4l-13.41-7.64-31.22-17.68,8.7-1.6,35.75-7.27,5.52-1.07,4.48-.9,5.01-1.03,6.59-1.67c1.65-.42,3.87-.33,4.99-1.56,1.38-1.53-4.51-1.81-8.23-4.63l-4.02-1.07c-1.36-.36-3.82-1.14-5.05-.93l-5.7.95-13.91,2.9-5.81,1.17-4.22.76-11.8,2.52-6.49,1.14-14.54,3.43-2.46-6.45-5.43-14.64-8.46-21.86c-.36-.94-1.75-1.67-2.88-1.94l5.47-3.42c1.83-1.15,3.44-3.02,4.86-4.89.64,1.75,2.14,2.21,3.87,2.96l14.15,6.23,26.67,11.79,40.01,16.86,9.28,3.33,6.79,2.87c2.81,1.19,5.97,2.3,8.8,2.88.09,5.37.81,9.67,3.22,13.91l1.68,2.97c2.44,3.13,5.7,5.48,9.29,7.95l-1.95-.08ZM402.96,435.93c-14.29,5.31-28.41,10.59-43.24,14.21l-9.09,2.22-5.14.96-5.32.96-7.05,1.24.9-4.95,12.99-4.2,13.67-5.32,36.36-15.16c1.18-.49,3.87-1.87,4.98-1.35l11.62,6.75-10.67,4.63Z"/>
    <path class="cls-1" d="M371.1,387.66c-1.1-.78-.04-3.19.32-4.27.74-2.25-.5-4.79,1.74-6.69.86-.73,2.58-.63,3.76-.38l4.67.96,7.83,1.06,10.21,1.19,9.83.83,28.13.69,12.84-.56,15.68-2.21,6.57-1,8.45-2.11c9.89-2.47,19.43-5.76,28.4-10.51l9.51-5.04c3.61-1.91,6.52-4.72,9.55-7.49,5.16-4.71,8.35-10.8,11.47-17.03,2.13-4.24,3.87-8.35,5.04-12.94l3.33-13.04,1.91-8.02c.36-1.53-.92-3.52,1.57-4.75l1.28,5.65c4.26,18.85,1.43,40.27-9.72,55.88-6.5,9.09-14.29,15.65-24.16,20.48l-15.47,6.56-17.68,5.29-5.47,1.13-5,.99-6.57,1.02-6.51.9-9.51.98-6.02.5-7.21.23-17.7-.03-10.02-.93c-2.88-.27-5.29-.4-8.1-.76l-7.93-1.03-5.61-.91-4.41-1.03-4.96-1.01-4.61-.93c-1.7-.35-3.7-.43-5.42-1.65Z"/>
    <path class="cls-1" d="M126.1,121.84c-7.21,6.5-13.02,13.35-18.98,20.74s-10.91,14.8-15.52,22.92l-4.91,8.67c-2.07,3.65-3.89,7.55-5.48,11.46l-3.18,7.86-5.9,16.47c-3.57-2.49-3.45-12.77-2.16-17.03l2.82-9.25,1.45-4.7,4-10.92c4.11-11.22,21.4-35.95,30.3-44.99l7.02-7.13c16.87-17.13,36.17-31.56,58.02-41.7l14.05-6.53c13.66-6.35,27.71-11.08,42.57-13.75l11.99-2.15,5.24-.81,5.72-.86,13.94-1.07c11.63-.89,22.94-.04,34.57,1.22l14.31,2.2,5.73,1.27,9.35,2.19c1.49.35,2.9.69,3.2,2.46l-13.12-1.99-5-.5-11.22-.87c-7.53-.58-15.02-.26-22.73-.28l-4.03.38-11.95,1.08-6.12.83-7.9,1.17-4.07.82-14.64,3.52c-12.22,2.94-23.92,6.96-35.44,11.98l-11.86,5.17-8.29,4.17-16.21,9.22-6.71,4.37c-4.55,2.96-8.67,6.14-12.72,9.79l-16.16,14.58Z"/>
    <path class="cls-1" d="M155.77,310.08c.02-2.14-1.03-3.53-2.64-4.71-2.85-2.1-4.72-1.57-8.32-.92l-5.59,1.01-4.16.91-13.72,2.81c-3.15.65-6.21,1.44-9.02,2.87-2.98-8.05-8.63-15.19-16.47-18.76-3.81-1.74-11.88-3.47-15.31-2.51l-9.47,2.64c-.53.15-1.1.22-1.65.09-.24.13-.49.24-.76.32-.06,0-.11.02-.17.02,0,0-.01,0-.02,0,.02,0,.04,0,.07.01l-4.75,3.82-3.34,3.02c-5.56,6.57-7.56,15.16-6.28,23.54.69,4.52,2.21,8.25,4.48,12.19,3.38,5.85,9.17,9.58,15.5,11.91,3.44,1.26,6.77,2.01,10.37,1.56,6.46-.8,12.36-2.52,17.56-6.63l4.63-3.66,2.44-4.2c3.55-6.11,4.56-12.91,4.7-12.94l2.26-.52,26.59-5.93,14.2-3.56-1.14-2.37ZM83.55,343.19c-12.68,0-22.97-10.28-22.97-22.97s10.28-22.97,22.97-22.97,22.97,10.28,22.97,22.97-10.28,22.97-22.97,22.97Z"/>
    <path class="cls-1" d="M315.36,350.56c-1.8.06-3.49-.08-5.31-.71l-27.89-9.69-5.1-1.84-16.75-6.89-12.54-5.44-5.54-2.45-8.59-3.83-11.82-5.2c-2.7-1.19-4.99-2.79-7.09-4.89l.08-3.92c1.64-1.33,3.51-2.27,5.58-2.84l3.64-.99,17.11.07c3.39.01,6.3,3.09,9.14,4.79l2.57-1.06,6.63.19,6.8,5.19,7.43,6.17c2.92,2.43,6.24,5.05,9.61,6.83,5.68-.39,10.28,1.07,15.17,3.9,2.63,1.52,6.7,1.65,9.01,3.89,2.88,2.8,3.97,7.12,5.75,10.67l2.17,4.35c.35.71.1,2.39-.05,3.7Z"/>
    <path class="cls-1" d="M522.05,345.45l-7.48,7.69-3.95,2.78c-.03-2.88,2.02-4.37,2.94-7.29l2.88-9.14.88-3.48.99-4.45,1.91-10.44,2.65-21.71.08-25.21.04-4.63c.02-2.32-.22-4.83-.53-7.17l-.62-4.68c1.89,2.24,2.84,4.93,3.84,7.66l2.46,6.69,1.2,4.05.95,4.16.97,3.56,1.01,4.88.95,6.53.4,13.72-.34,8.55-1.01,4.94-1.11,4.31c-1.74,6.77-4.5,12.98-9.1,18.67Z"/>
    <path class="cls-1" d="M67.08,263.9l-.7,25.11c-1.41-2.34-4.71-22.33-5.15-24.62-.4-2.05-.37-6.47-.54-8.52-.58-7.01-.29-13.95-.12-21.14l1.15-4.91.88-4.11c.79-.21,1.56.75,2.09,1.59l3.76,5.94c1.13,4.56-.02,9.6-.45,14.37l-.24,7.13-.66,9.15Z"/>
    <path class="cls-1" d="M99.08,284.55l-.43,3.77-4.31-2.26c-1.12-.58-2.3-.91-3.93-1.22l.14-18.59,1.36-10.57c.65.36,1.86,1.14,2.19,1.68l2.21,3.68c1.34,3.57,1.08,7.35,1.63,11.07l.61,4.16.54,8.27Z"/>
    <circle class="cls-1" cx="42.13" cy="176.01" r="18.26"/>
    <circle class="cls-1" cx="186.17" cy="312.89" r="17.16"/>
    <circle class="cls-1" cx="342.69" cy="377.24" r="16.68"/>
    <circle class="cls-1" cx="83.66" cy="320.24" r="19.7"/>
    <g>
      <path class="cls-1" d="M389.33,140.86c-2.52-2.69-3.91-5.4-5.31-8.61-.76-1.75-1.75-3.66-2.13-5.85-.21-1.21,1.93-3.11,2.77-4.03,2.25-2.5,4.32-4.65,6.96-6.62,3.83-2.86,7.2-5.55,10.56-9.44l-6.08-2.46-8.95-2.59-8.53-2.3-19.28-4.26c.21-1.28-.09-2.58-.75-3.16-1.16-1-2.47-1.46-3.87-1.41l-9.41.32-7.7.72c-1.39.13-3.46.62-4.15,1.21l-.39,3.27c-.23,1.92-1.06,3.84-1.78,5.7-2.11,5.46-5.08,6.74-10.69,7.42-4.4.53-8.76,2-12.96,3.39l-5.36,1.77c.24,4.45-2.09,7.48-3.61,11.28l-3.43,8.6c-5.75-.36-10.04-2.65-14.59-5.5-2.47-1.54-4.19-3.71-5.92-6.12l-3.58-4.98-2.65-3.22-5.87-6.65-.85-.92c-1.1-1.21,7.06-3.41,10.44-6.98l-6.03-6.77c-1.32-1.48-1-5.36-3.68-6.26l-9.19.04c-2.94.01-4.97.18-7.55-1.24l-2.97-1.63c-2.89,3.03-6.02,2.51-8.65,4.12l-4.21,2.59-.56,1.5-2.01,1.05,4.79,2.08,9.11,4.3c3.2,1.51,5.49,3.65,6.45,7.01,1.48,5.18-.03,9.18-3.22,13.35l-2.98,3.88-.75,4.3c-1.84,2.33-5.22,2.87-8.05,2.08l-11.82-3.27c-2.72-.75-5.65-2.94-5.07-6.32l2.26-4.57c.22-2.1.34-2.81,2.68-4.17-2.79-2.7-6.17-1.84-9.01-3.88-2.95-.01-5.78.22-8.17-1.75-1.86-1.54-1.42-6.2.83-8.47l-3.99.54-4.39,2.3c-.89.54-1.38,2.68-1.96,3.93-1.36,2.92-5.38,5.15-8.5,4.25l-5.64-1.62-4.08.66c-.83.13-2.81.85-3.37,1.49l-2.6,2.98c-.85.98-.98,2.54-.93,3.38-.67.5-1.41,1.6-1.77,3,2.5.75,5.5,1.94,7.97,1.29l6.71-4.26c3.92-2.49,12.47-3.32,17.38-1.67l4.22,1.42c.76.25,2.09,1.28,2.25,2.02.21.97-.73,2.24-1.53,3.04l-4.72,4.76c-5.09,5.13-7.58-.69-12.58,2.99-2.01,1.48-4.33,3.16-5.92,5l-5.39,6.19c-2.12,2.44-4.18,5.13-5.62,8.08l7.79,5.55,4.89,4.1,4.78,4.33.18,6.11c.05,1.55-1,5.08,1.17,5.78l8.89,2.85,2.66.79-1.25-4.29-1.97-7.12c-.48-1.73-1.24-3.84-.34-5.57.96-1.83,3.33-2.98,4.69-4.2,2.73-3.6,2.78-8.56,1.85-12.63l1.2-3.44,5.55-4.88,2.21-2.4c.27-.29.93-.82,1.26-1,.42-.22.87,1.24,1.01,1.89h1.77c4.35,4.54,9.56,6.72,15.31,9.65l5.07-3.39,5.21-3.77c4.02,3.43,7.66,7.38,10.97,11.49l7.81,9.69,5.74,6.75,3.41,4.04c-2.18-.25-2.65.62-4.59,1.22l-4.55,1.43-22.35,9.68-6.27,2.28-5.03,1.74,5.17,4.4,6.96,4.97c1.48,1.06,2.52,1.3,3.96,3.01l-7.9,6-5.53,3.99c-4.26-.52-7.98-1.74-12.07-3.36l-5.92,5.81-21.11,19.27-6.85,5.39-.12,19.74-1.15,4.61c-1.01.08-2.6-1.01-3.65-1.52-4.19-2.02-6.48-4.86-8.83-8.85l-1.83-3.1-3.43-5.66c-.71-.31-2.41.47-3.14,1l-13.69.16c-2.85.03-8.17,4.41-10.62,7.43l-5.09,6.29c-1.87,2.3-4.52,2.93-6.83,1.06l-9.88-8-5.56-4.86-8.06-7.07-6.37-6.06c-2.56-2.44-4.8-4.83-6.85-7.64-1.67-2.3-2.08-3.94-1.44-6.86l1.07-4.87c2.34-10.67,5.85-20.6,10.84-30.28l3.4-6.58c5.99-11.61,13.77-21.65,22.22-31.66,10.94-12.97,23.43-24.01,37.52-33.37l8.74-5.81c17.98-11.95,48.92-24.18,70.05-28.79l4.8-1.05,5.99-.94,8.01-1.07,6.7-.89,6.66-.45,13.51-.89,11.5.41,10.77.95,8.12.9,7,.94,4.96.99,4.98,1.04,4.53.94,4.41.97,10.84,3.14c13.11,3.8,25.14,9.19,37.14,15.82,10.2,5.64,19.2,12.36,28.05,19.87l9.19,7.81,11.93,11.06,6.78,6.73,9.21,10.27,5.46,6.5,3.35,4.17,5.92,8.08,3.46,5.06c5.92,8.65,10.76,17.51,15.59,26.9,12.7,24.7,19.67,51.25,21.87,78.88l.04,20.08-.84,9.75-.8,6.78-1.01,5.1-1.03,6.48-1.03,5.65-6.4,19.96c-1.03,3.2-2.34,6.17-4.24,8.92l-5.12,2.15-18.91,5.11-4.09.89-4.8.79-6.53.91-7.99.99-18.17.41-6.19.48c-1.41.11-3.72-.22-5.11-.4-1.45-3.52-2.87-6.33-4.8-9.41l-3.56-5.69-2.33-5.5c-.54-1.26-.28-3.66.29-4.99l2.28-5.29c.95-2.21.26-3.24-1.45-4.83l-3.3-3.07-3.62-3.37-3.88-3.46c-.96-.7-2.78,1.4-3.63,2.25-3.01,3.01-7.3,3.7-11.41,3.61-5.49-.13-10.54.69-16.01.91l-8.67.34c-3.07.82-4.76,1.23-7.28-.91l-3.95-3.37-6.42-7.16-5.91-6.58-13.61-14.77-4.63-5.09c.12-1.01,1.87-1.95,2.55-2.73l4.5-5.16v-25.28s4.63-3.99,4.63-3.99l8.99-7.51,9.05-6.92,7.27-5.72c3.28-2.58,6.28-3.6,10.42-4.31l5-.85,5.99-.99,6-.98,8.09-.91,5.8-1.16,9.48-1.63,5.49-.96c.94-.16,3.13-1.13,3.71-.41,1.51,1.89.94,4.55,1.59,6.51s1.18,2.82.23,5.3l5.76,2.21c5.48,2.1,11.02,3.68,16.21,6.36,1.86.96,4.06,1.1,4.9-1.07,1.24-3.22,4.02-5.72,7.19-7.24l4.17,1.54,10.59,4.43,10.42,5.11c1.2.59,2.89,1.27,3.59-.13s1.4-2.77,2.44-3.6c1.5-1.19,2.65-2.67,2.98-4.64l-6.23-3.99c-2.7-1.73-4.54-4.03-6.94-6.08l-4.52-3.87,3.78-5.15c.39-.53.21-1.66-.52-2.14l-5.5-3.59-4.29-2.76.9,1.49c.06-.25.12.58-.07.51l-1.07-.4-3.56,15.67c-.03.37-.13.6-.38,1.12l-4.44-1.3-3.01-.23-2.3-3.36-2.46-5.06c-3.9-8.02-8.53-15.28-14.38-22.08-.65-.76-1.72-2.29-2.55-2.23l-4.92,1.92c-.2.08-1.41.06-1.28.2l.86.93,4.26,4.33,2.51,2.98,6.11,7.27,4.28,5.69-4.3,3.67-3.25,2.57-7.06-6.47-9.99-8.53-8.34-7.09c-2.31-1.97-4.44-.64-6.25,1.19l-8.67,8.78-10.93,10c-1.6,1.46-2.83,2.35-5.02,2.63-4.79.61-11.68.32-15.18-1.33-2.62-1.24-2.95-2.33-3.72-4.7l-2.06-6.36-2.1-7.3-.5-5.93c3.91-2.13,7.49-4.27,11.77-5.2l7.41-1.6,8.55-.18c.29-.44.85-1.14.68-1.31l-.96-1.01-7.27-13.29,3.32-1.88c8.54.23,16.34-6.91,21.3-13.79l4.97-6.88c1.59-2.2,2.92-2.9,5.65-2.19l4.3,1.12,6.67,1.85-.18-1.38c-.04-.32.81-.84.95-1.16l3.05-7.15,2.46-5.01c-3.22-2.11-6.1-4.54-9.08-7.41-2.91.05-1.86,5.5-3.62,8.45l-1.96,3.27c-10.68,4.33-13.3.42-20.34-7.11Z"/>
      <path class="cls-1" d="M374.89,172.97c-2.66-1.63-1.97-3.97-2.16-6.29-.31-3.73-2.66-6.9-4.37-10.09l-3.14-5.87-1.51-3.17c-.57-1.06-1.54-2.43-1.52-3.64l.08-4.09,10.17-3.54,2.96,2.23c.66,3.89,2.27,7.23,4.42,10.47,1.42,3.95,4.08,7.14,7.19,9.9,1.46,1.3,2.1,3.01,1.15,4.92-2.89,5.82-8.58,12.05-13.27,9.17Z"/>
      <path class="cls-1" d="M344.81,121.79c-4.89,2.62-11.03,3.03-15.46-.77l-7.53-7.58,3.59-1.24,10.46-3.09,4.51-1.02c2.09-.47,4.78-.29,6.98.06,1.88.3,3.68,2.06,5.41,3.03,1.19.67,3.4,2.27,2.61,3.85s-3.18,2.78-4.77,3.63l-5.81,3.12Z"/>
      <path class="cls-1" d="M261.87,192.33c-1,.44-3.53.75-4.38.12l-6.76-6.15-3.46-3.7,15.28-7.53,7.07-3.9c1.57,5.47,6.82,8.53,6.57,14.94l-14.31,6.22Z"/>
      <path class="cls-1" d="M224.69,284.29l-16.96-.15c-1.85-.02-3.32-.32-5.13-.7-.93-.19-2.99-.05-3.62-.74-.84-.92-1.31-2.6-.97-3.79l.98,1.87,3.05-6.17c1.29-2.61,3.84-2.08,6.03-1.31l5.56,1.96,17.55,7.28c.3.12.88.66,1.03.89s-.17,1.02-.44,1.02h-1.29s-5.8-.16-5.8-.16Z"/>
      <path class="cls-1" d="M198.98,274.57l-3.45,3.97-2.65,1.45c-.89-.01-3.52-.34-4.42-.98-3-2.11-6.32-4.23-8.61-6.85l-6.28-7.18c3.83-2.75,7.96-2.61,12.19-.34l4.56,2.46,7.66,3.78-.18,1.16,1.53-.07c.36-.02.89.8,1.07,1.11.22.39-1.1,1.11-1.41,1.48Z"/>
      <path class="cls-1" d="M361.62,169.16l-6.02.25-5.53-.27c-.59-4.56-.88-9.6,1.18-13.78,1.23-2.5,7.4-6.7,10.34-3.04.84,1.05,2.63,2.77,2.85,3.92.85,4.59-.37,8.84-2.82,12.92Z"/>
      <path class="cls-1" d="M162.45,278.89c-3.13-3.65-8.51-2.5-13.08-7.36l4.02-1.82,5.13-1.96c1.39-.53,3.63-1.27,5.08-.94,1.25,1,.8,3.41.78,4.79-.05,2.74-.37,5.25-1.94,7.29Z"/>
    </g>
  </g>
  <path class="cls-1" d="M522.66,227.26c10.64,9.47,22.4,15.14,36.02,7.73,2.8-1.66,1.15-2.42-1.8-3.13-20.18-3.49-21.29-22.95-39.44-31.5-4.48-3.05-25.79-7.23-10.24-11.08,13.74-2.81,27.87-4.98,41.57-7.68,5.3-1,10.92-2,16.08-3.39,1.15-.35,1.6-.67,1.46-.96-.51-.68-3.24-.87-4.58-1.14-3.9-.56-7.78-1.3-11.67-1.93-15.82-2.11-31.66-4.72-47.59-6.74-4.29-.6-14.18-.95-6.74-6.54,5.68-4.3,12.18-8.23,18.57-11.53,12.08-6.03,26.79-7.49,36.76-17.22,1.17-1.36,3.41-3.42,3.07-4.88-.21-.19-.4-.16-.77-.12-1.4.29-3.09,1.21-4.49,1.85-3.83,2.04-8.67,1.96-13.6,1.91-6.67.02-14.08.04-20.64.06-8.96-.6-16.79,3.64-24.78,7.57-13.82,7.32-6.8-3.6-2.59-10.06,5.29-8.36,10.72-16.42,15.95-24.79,1.86-3.44,11.59-17.07,10.05-19.12-.75-.6-2.87.58-3.92,1.19-3.25,1.9-7,4.41-10.34,6.52-7.27,4.53-14.29,8.8-21.3,13.62-4.73,3.15-8.14,5.25-12.52,7.92-1.96,1.04-5.01,3.35-6.99,1.76-2.01-2.27-.97-6.78-.6-9.89,1.02-6.11,3.17-12.11,6.58-17.24,5.72-8.53,12.83-16.41,15.15-26.67.61-3.2,1.47-8.03-.23-10.7-1.4-.93-2.89,2.98-3.71,4.09-1.08,1.95-2.37,3.77-3.82,5.47-5.36,6.32-12.56,11.29-18.94,16.87-4.32,3.9-8.73,8.27-11.58,13.3-1.58,2.54-2.38,6.14-4.05,8.52-5.74,6.74-11.03-19.79-11.6-23.43-1.03-5.46-2.23-10.9-3.24-16.36-.6-2.84-.97-5.89-1.65-8.56-.3-1.1-.62-1.79-.98-1.89-.37-.12-.75.36-1.14,1.33-.69,1.89-1.28,4.31-1.74,6.38-2.26,9.4-4.33,18.79-6.61,28.09-3.51,12.14-5.31-5.53-4.96-9.31.36-8.28,2.65-16.38,3.99-24.53,2.6-14.26,6.07-28.29,9.35-42.38,3.42-15.05,4.88,8.02,6.13,11.58,3.25,16.25,5.81,32.76,8.64,49.09.84,4.42,2.08,13.21,7.79,7.23,3.2-3.11,6.76-6.82,9.86-9.41,5.43-4.74,12.89-8.89,15.74-15.65,3.17-7.95.38-17.58-3.67-24.51-3.4-7.44,13.17,2.24,14.84,3.87,9.98,7.33,13.13,21.02,10.77,32.76-1.89,8.72-8.02,17.21-13.48,24.61-2.56,3.22-12.46,18.3-1.29,9.99,4.6-3.33,11.6-7.97,16.61-11.08,16.75-9.99,33.95-22.32,49.7-32.99,1.7-1.08,3.54-1.94,2.29.87-11.47,19.56-23.16,39.54-35.47,58.64-.88,1.83-7.74,8.93-2.87,8.85,4.72-.47,10.08-1.75,15.05-1.37,19.09,1.14,34.26,2.62,38.41-20.58,1.81-5.55,5.02,1.55,6.69,4.87,5.14,10.61,4.32,23.5-4.21,32.11-8.29,8.89-20.71,12.1-31.87,15.94-17.89,5.9-10.31,6.78,2.66,8.64,17.63,3.21,35.34,5.78,52.9,9.35,4.03,1.09,25.49,2.19,11.02,6.24-12.94,4.22-25.76,8.24-39,11.37-6.06,1.48-12.2,2.62-18.05,3.68-2.66.43-6.57,1.54-4.51,4.78,2.69,3.9,6.36,7.53,9.01,11.58,7.37,10.62,15.6,14.45,28.46,14.05,2.72.11,6.61-.35,6.25,3.06-1.43,5.42-7.2,11.87-11.89,15.56-4.37,3.49-9.42,6.26-14.92,7.22-16.84,2.27-30.58-11.13-39.89-23.64-1.49-1.82-5.35-8.47-.42-7.33,4.1,1.23,9.18,6.13,12.85,9.08l.15.13Z"/>
  <path class="cls-1" d="M378,50.8c-3.33-5.25-4.15-4.93-3.76,1.97.06,5.6.56,11.72-2.68,16.14-.51.61-1.04.96-1.48.86-1.08-.26-1.45-2.52-1.73-3.8-.73-4-1.5-7.67-2.95-11.72-2.69-8.81-7.56-17.43-15.86-22.08-1.17-1.05-8.53-3.11-6.18-4.69,3.64-1.8,9.44-2.4,13.51-2.25,24.82,2.9,35.93,18.55,36.7,42.77.12,3.89.24,9.03.08,12.53-.18,2.54-.55,3.68-2.03,1.75-2.25-3.3-3.63-7.08-4.83-11.08-1.62-6.9-4.97-14.01-8.69-20.22l-.1-.17Z"/>
</svg>