<?xml version="1.0" encoding="UTF-8"?>
<svg id="Layer_1" data-name="Layer 1" xmlns="http://www.w3.org/2000/svg" viewBox="0 0 859.55 111.69">
  <defs>
    <style>
      .cls-1 {
        fill: #fff;
      }
    </style>
  </defs>
  <path class="cls-1" d="M75.55,48.3v16.54c0,14.95-7.8,23.31-23.31,23.31-5.92,0-10.62-.19-15.88-.56V24.8c4.14-.19,9.78-.47,15.88-.47,15.04,0,23.31,7.99,23.31,23.97ZM41.8,29.41v53.39c4.42.38,7.61.56,10.43.56,11.09,0,17.86-6.3,17.86-17.95v-17.39c0-12.78-6.39-18.89-18.23-18.89-3.38,0-7.14.09-10.06.28Z"/>
  <path class="cls-1" d="M123.68,87.03h-5.45V25.46h5.45v61.57Z"/>
  <path class="cls-1" d="M201.6,26.02l-.09,4.89c-3.67-.66-10.15-1.69-15.32-1.69-10.15,0-13.91,3.76-13.91,12.78v28.2c0,9.21,3.95,13.06,13.91,13.06,3.48,0,8.08-.66,12.97-1.79v-23.88h-12.41v-5.17h17.67v32.43c-5.17,1.6-12.03,3.29-18.23,3.29-14.19,0-19.36-6.11-19.36-18.52v-26.79c0-12.97,5.45-18.52,19.36-18.52,4.61,0,11.09.94,15.42,1.69Z"/>
  <path class="cls-1" d="M253.21,87.03h-5.45V25.46h5.45v61.57Z"/>
  <path class="cls-1" d="M334.89,30.44h-18.52v56.58h-5.45V30.44h-18.52v-4.98h42.49v4.98Z"/>
  <path class="cls-1" d="M408.68,87.03h-6.02l-4.7-15.41h-25.19l-4.61,15.41h-5.73l19.36-61.57h6.96l19.93,61.57ZM374.18,66.63h22.28l-11.28-36.09-11,36.09Z"/>
  <path class="cls-1" d="M451.36,82.14h25.28v4.89h-30.74V25.46h5.45v56.68Z"/>
  <path class="cls-1" d="M602.5,30.44h-18.52v56.58h-5.45V30.44h-18.52v-4.98h42.49v4.98Z"/>
  <path class="cls-1" d="M695.09,87.03h-7.61l-14.38-55.36-14.29,55.36h-7.61l-14.95-61.57h5.92l13.06,55.55,14.01-55.55h7.71l14.1,55.55,13.06-55.55h5.83l-14.85,61.57Z"/>
  <path class="cls-1" d="M753.94,87.03h-5.45V25.46h5.45v61.57Z"/>
  <path class="cls-1" d="M802.91,32.04v54.99h-5.36V25.46h8.55l25.38,54.71V25.46h5.36v61.57h-8.18l-25.75-54.99Z"/>
</svg>