<?xml version="1.0" encoding="UTF-8"?>
<svg id="Layer_1" data-name="Layer 1" xmlns="http://www.w3.org/2000/svg" viewBox="0 0 143 47.34">
  <defs>
    <style>
      .cls-1 {
        fill: #fff;
      }
    </style>
  </defs>
  <path class="cls-1" d="M1.54,16.92v-.12c1.36,0,1.44-1,1.44-2.48V4.96c0-1.48-.08-2.48-1.44-2.48v-.12h5.12v.12c-1.36,0-1.44,1-1.44,2.48v9.36c0,1.48.08,2.48,1.44,2.48v.12H1.54Z"/>
  <path class="cls-1" d="M15.97,2.36h3.76v.12c-1.36,0-1.56,1.52-1.56,3.68v11h-.12L9.32,4.1v9.06c0,2.08.4,3.64,1.84,3.64v.12h-3.96v-.12c1.36,0,1.76-1.56,1.76-3.64V4.68c0-1.44-.68-2.04-1.76-2.2v-.12h3.6l7,10.58v-6.78c0-2.16-.32-3.68-1.84-3.68v-.12Z"/>
  <path class="cls-1" d="M28.91,2.36h3.76v.12c-1.36,0-1.56,1.52-1.56,3.68v11h-.12l-8.72-13.06v9.06c0,2.08.4,3.64,1.84,3.64v.12h-3.96v-.12c1.36,0,1.76-1.56,1.76-3.64V4.68c0-1.44-.68-2.04-1.76-2.2v-.12h3.6l7,10.58v-6.78c0-2.16-.32-3.68-1.84-3.68v-.12Z"/>
  <path class="cls-1" d="M33.08,9.68c0-4.48,2.64-7.56,6.6-7.56s6.56,2.92,6.56,7.48-2.64,7.56-6.6,7.56-6.56-2.92-6.56-7.48ZM43.77,9.64c0-4.04-1.4-7.24-4.12-7.24s-4.08,3.08-4.08,7.24,1.4,7.24,4.12,7.24,4.08-3.08,4.08-7.24Z"/>
  <path class="cls-1" d="M55.03,2.36h3.36v.12c-.96.16-1.46,1.46-2.32,3.86l-3.9,10.82h-.16l-4.4-12.24c-.58-1.64-.98-2.36-1.82-2.44v-.12h5.12v.12c-1.12.08-1.5.74-1.1,1.9l3.24,9.26,2.64-7.42c.84-2.36.7-3.58-.66-3.74v-.12Z"/>
  <path class="cls-1" d="M66.13,14.36c.58,1.64.98,2.36,1.82,2.44v.12h-5.12v-.12c1.12-.08,1.5-.84,1.12-1.9l-1.04-2.94h-4.46l-.4,1.1c-.84,2.36-.7,3.58.66,3.74v.12h-3.36v-.12c.96-.12,1.46-1.46,2.32-3.86l3.9-10.82h.16l4.4,12.24ZM58.6,11.48h4.14l-2.06-5.84-2.08,5.84Z"/>
  <path class="cls-1" d="M76.85,5.52h-.12c-1.1-2.34-1.8-2.84-3.72-2.84h-.62v11.64c0,1.48.08,2.48,1.44,2.48v.12h-5.12v-.12c1.36,0,1.44-1,1.44-2.48V2.68h-.62c-1.9,0-2.62.5-3.72,2.84h-.12l.28-3.16h10.6l.28,3.16Z"/>
  <path class="cls-1" d="M77.42,16.92v-.12c1.36,0,1.44-1,1.44-2.48V4.96c0-1.48-.08-2.48-1.44-2.48v-.12h5.12v.12c-1.36,0-1.44,1-1.44,2.48v9.36c0,1.48.08,2.48,1.44,2.48v.12h-5.12Z"/>
  <path class="cls-1" d="M83.12,9.68c0-4.48,2.64-7.56,6.6-7.56s6.56,2.92,6.56,7.48-2.64,7.56-6.6,7.56-6.56-2.92-6.56-7.48ZM93.81,9.64c0-4.04-1.4-7.24-4.12-7.24s-4.08,3.08-4.08,7.24,1.4,7.24,4.12,7.24,4.08-3.08,4.08-7.24Z"/>
  <path class="cls-1" d="M105.43,2.36h3.76v.12c-1.36,0-1.56,1.52-1.56,3.68v11h-.12l-8.72-13.06v9.06c0,2.08.4,3.64,1.84,3.64v.12h-3.96v-.12c1.36,0,1.76-1.56,1.76-3.64V4.68c0-1.44-.68-2.04-1.76-2.2v-.12h3.6l7,10.58v-6.78c0-2.16-.32-3.68-1.84-3.68v-.12Z"/>
  <path class="cls-1" d="M21.4,21.27h4.53v.16c-1.4.22-2.13,1.89-3.13,5.21l-4.45,14.6h-.22l-4.51-13.79-4.99,13.79h-.22L3.29,24.73c-.7-2.21-1.32-3.18-2.46-3.29v-.16h6.91v.16c-1.51.11-2.02,1-1.54,2.56l3.73,12.23,3.46-9.56-.65-1.94c-.73-2.21-1.32-3.18-2.46-3.29v-.16h6.91v.16c-1.51.11-2.08,1-1.57,2.56l3.83,11.88,2.83-9.39c.97-3.27.94-4.83-.89-5.05v-.16Z"/>
  <path class="cls-1" d="M25.27,31.15c0-6.05,3.56-10.2,8.91-10.2s8.85,3.94,8.85,10.09-3.56,10.2-8.91,10.2-8.85-3.94-8.85-10.09ZM39.68,31.1c0-5.45-1.89-9.77-5.56-9.77s-5.51,4.16-5.51,9.77,1.89,9.77,5.56,9.77,5.51-4.16,5.51-9.77Z"/>
  <path class="cls-1" d="M60.04,40.76v.16c-.43.05-1.78.11-2.59.11-1.94,0-2.43-.86-5.78-8.21-.46-.97-.92-1.19-1.78-1.19h-1.11v5.78c0,2,.11,3.35,1.94,3.35v.16h-6.91v-.16c1.84,0,1.94-1.35,1.94-3.35v-12.63c0-2-.11-3.35-1.94-3.35v-.16h7.29c4.32,0,6.69,2,6.69,5.13,0,2.65-1.97,4.32-4.4,4.97v.05c.78.46,1.46,1.54,2.11,2.78,2.7,5.18,3.24,6.13,4.53,6.56ZM48.78,31.21h1.84c2.67,0,4.05-1.65,4.05-4.59s-1.27-4.91-4.02-4.91h-.84c-.65,0-1.03.32-1.03.97v8.53Z"/>
  <path class="cls-1" d="M64.93,37.41c0,2,.11,3.35,1.94,3.35v.16h-6.91v-.16c1.83,0,1.94-1.35,1.94-3.35v-12.63c0-2-.11-3.35-1.94-3.35v-.16h6.91v.16c-1.84,0-1.94,1.35-1.94,3.35v12.63ZM67.93,29.29c4.89,7.59,7.42,11.15,8.83,11.47v.16c-.94.11-2.11.11-2.7.11-2.32,0-3.35-1.84-8.42-9.83l4.83-5.7c1.16-1.35,1.67-2.21,1.67-2.97,0-.67-.51-1.05-1.05-1.11v-.16h5.18v.16c-.92.16-2.89,1.46-5.4,4.4l-2.94,3.46Z"/>
  <path class="cls-1" d="M77.03,40.14l-.16-4.45h.16c1.19,3.4,3.05,5.18,5.56,5.18,2.13,0,4.02-1.43,4.02-3.89s-1.94-3.48-4.21-4.59l-1.38-.67c-1.81-.89-3.75-2.16-3.75-5.18,0-3.21,2.32-5.59,5.64-5.59,1.48,0,3.56.49,4.86,1.08v3.51h-.16c-1.21-2.92-2.81-4.21-4.86-4.21-2.19,0-3.59,1.46-3.59,3.64s1.73,3.1,3.37,3.91l1.38.67c2.35,1.16,4.59,2.43,4.59,5.75s-2.54,5.94-6.32,5.94c-1.57,0-3.89-.46-5.16-1.11Z"/>
  <path class="cls-1" d="M106.94,21.44c-1.84,0-1.94,1.35-1.94,3.35v12.63c0,2,.11,3.35,1.94,3.35v.16h-6.91v-.16c1.83,0,1.94-1.35,1.94-3.35v-6.42h-7.56v6.42c0,2,.11,3.35,1.94,3.35v.16h-6.91v-.16c1.83,0,1.94-1.35,1.94-3.35v-12.63c0-2-.11-3.35-1.94-3.35v-.16h6.91v.16c-1.84,0-1.94,1.35-1.94,3.35v5.72h7.56v-5.72c0-2-.11-3.35-1.94-3.35v-.16h6.91v.16Z"/>
  <path class="cls-1" d="M107.73,31.15c0-6.05,3.56-10.2,8.91-10.2s8.85,3.94,8.85,10.09-3.56,10.2-8.91,10.2-8.85-3.94-8.85-10.09ZM122.14,31.1c0-5.45-1.89-9.77-5.56-9.77s-5.51,4.16-5.51,9.77,1.89,9.77,5.56,9.77,5.51-4.16,5.51-9.77Z"/>
  <path class="cls-1" d="M133.56,21.27c4.32,0,6.72,2.27,6.72,5.45,0,3.83-2.29,6.1-6.29,6.1-1.16,0-2.19-.3-2.75-.51v5.1c0,2,.22,3.35,2.05,3.35v.16h-7.02v-.16c1.84,0,1.94-1.35,1.94-3.35v-12.63c0-2-.11-3.35-1.94-3.35v-.16h7.29ZM137.15,26.89c0-2.7-1.19-5.18-4.1-5.18h-.78c-.65,0-1.03.32-1.03.97v8.26c0,.86.54,1.24,2,1.24,2.16,0,3.91-1.84,3.91-5.29Z"/>
</svg>