<?xml version="1.0" encoding="UTF-8"?>
<svg id="Layer_1" data-name="Layer 1" xmlns="http://www.w3.org/2000/svg" viewBox="0 0 108.15 14.46">
  <defs>
    <style>
      .cls-1 {
        fill: #fff;
      }
    </style>
  </defs>
  <path class="cls-1" d="M7.49,4.16h.74v3.96c0,.26-.06.5-.15.73s-.22.41-.39.57-.36.29-.58.38-.47.13-.73.13-.51-.04-.72-.12-.41-.2-.57-.35-.29-.33-.38-.54-.16-.45-.18-.71h.73c0,.16.04.31.1.44s.13.25.23.35.21.18.35.23.28.08.45.08.33-.03.46-.1.25-.15.35-.26.17-.24.22-.38.08-.3.08-.46v-3.96Z"/>
  <path class="cls-1" d="M13.32,7.33c0,.2-.02.41-.05.62s-.08.41-.15.6-.15.37-.26.54-.23.31-.38.44-.31.22-.5.29-.4.11-.63.11-.45-.04-.63-.11-.36-.17-.5-.29-.27-.27-.38-.44-.19-.35-.26-.54-.12-.39-.15-.6-.05-.41-.05-.61v-.65c0-.2.02-.41.05-.62s.08-.41.15-.6.16-.37.26-.54.23-.32.38-.44.31-.23.5-.3.4-.11.63-.11.45.04.64.11.36.17.5.29.27.27.38.44.19.35.26.54.12.39.15.6.05.41.05.62v.65ZM12.6,6.68c0-.14-.01-.28-.03-.42s-.04-.29-.08-.44-.09-.28-.15-.41-.14-.25-.23-.35-.2-.18-.33-.24-.28-.09-.45-.09-.31.03-.44.09-.24.14-.33.24-.17.22-.23.35-.11.27-.15.41-.06.29-.08.44-.03.29-.03.42v.66c0,.13.01.27.03.42s.04.29.08.44.09.28.15.42.14.25.23.35.2.18.33.24.28.09.45.09.32-.03.45-.09.24-.14.33-.24.17-.22.23-.35.11-.27.15-.41.06-.29.08-.44.02-.29.03-.43v-.66Z"/>
  <path class="cls-1" d="M14.42,4.16h3.44v.63h-1.36v4.43h1.36v.62h-3.44v-.62h1.33v-4.43h-1.33v-.63Z"/>
  <path class="cls-1" d="M22.78,9.85h-.73l-2.21-4.25v4.25h-.74v-5.69h.73l2.21,4.24v-4.24h.74v5.69Z"/>
  <path class="cls-1" d="M32.39,4.16v3.85c0,.27-.05.51-.14.75s-.22.43-.38.61-.36.31-.59.41-.48.15-.75.15-.53-.05-.75-.15-.42-.24-.58-.41-.29-.38-.38-.61-.14-.48-.14-.75v-3.85h.7l.02,3.85c0,.17.03.33.08.49s.12.29.22.41.21.22.36.29.31.11.49.11.35-.04.49-.11.26-.17.35-.29.17-.26.22-.42.08-.32.08-.49v-3.85h.71Z"/>
  <path class="cls-1" d="M36.6,8.41c0-.17-.04-.32-.12-.44s-.18-.22-.31-.3-.26-.15-.41-.21-.29-.1-.43-.15c-.2-.07-.4-.14-.61-.23s-.4-.2-.57-.34-.31-.29-.42-.47-.16-.39-.16-.64.05-.46.16-.66.25-.36.42-.49.37-.23.59-.3.44-.1.67-.1c.25,0,.49.04.71.12s.43.2.61.35.32.33.43.54.16.45.17.71h-.74c-.02-.16-.06-.31-.12-.45s-.14-.25-.24-.35-.22-.17-.35-.22-.29-.08-.46-.08c-.14,0-.27.02-.4.06s-.25.1-.35.18-.19.17-.25.29-.09.25-.09.4c0,.16.04.3.12.42s.18.21.31.29.26.14.4.2.28.1.41.14c.14.04.28.09.43.15s.28.12.41.19.26.16.37.25.21.19.3.31.15.24.2.38.07.29.07.46c0,.25-.06.48-.17.67s-.26.35-.44.47-.38.22-.61.29-.45.1-.68.1c-.25,0-.5-.04-.74-.12s-.46-.19-.65-.34-.35-.33-.47-.54-.18-.45-.19-.72h.74c.02.18.07.33.14.47s.17.25.28.35.25.17.4.21.31.07.49.07c.14,0,.28-.02.42-.05s.26-.09.37-.16.19-.17.26-.28.1-.25.1-.4Z"/>
  <path class="cls-1" d="M46.39,7.34h-2.37v2.51h-.73v-5.69h3.49v.62h-2.76v1.95h2.37v.61Z"/>
  <path class="cls-1" d="M51.72,7.33c0,.2-.02.41-.05.62-.03.21-.08.41-.15.6-.07.19-.15.37-.26.54s-.23.31-.38.44c-.15.12-.31.22-.5.29-.19.07-.4.11-.63.11s-.45-.04-.63-.11c-.19-.07-.36-.17-.5-.29-.15-.12-.27-.27-.38-.44-.11-.17-.19-.35-.26-.54-.07-.19-.12-.39-.15-.6-.03-.21-.05-.41-.05-.61v-.65c0-.2.02-.41.05-.62.03-.21.08-.41.15-.6.07-.19.16-.37.26-.54s.23-.32.38-.44c.15-.13.31-.23.5-.3.19-.07.4-.11.63-.11s.45.04.64.11c.19.07.36.17.5.29.15.12.27.27.38.44s.19.35.26.54c.07.19.12.39.15.6.03.21.05.41.05.62v.65ZM51.01,6.68c0-.14-.01-.28-.03-.42s-.04-.29-.08-.44c-.04-.14-.09-.28-.15-.41s-.14-.25-.23-.35-.2-.18-.33-.24c-.13-.06-.28-.09-.45-.09s-.31.03-.44.09c-.13.06-.24.14-.33.24s-.17.22-.23.35-.11.27-.15.41c-.04.14-.06.29-.08.44-.02.15-.03.29-.03.42v.66c0,.13.01.27.03.42.02.15.04.29.08.44s.09.28.15.42.14.25.23.35.21.18.33.24c.13.06.28.09.45.09s.32-.03.45-.09.24-.14.33-.24c.09-.1.17-.22.23-.35.06-.13.11-.27.15-.41.04-.14.06-.29.08-.44.01-.15.02-.29.03-.43v-.66Z"/>
  <path class="cls-1" d="M54.71,7.53h-1.14v2.32h-.72v-5.69h1.67c.27,0,.52.04.75.11s.44.18.62.32.31.32.41.53c.1.21.15.46.15.75,0,.18-.03.35-.08.51-.05.15-.13.29-.22.42s-.21.24-.34.33c-.13.1-.27.18-.43.25l1.21,2.43v.05h-.77l-1.12-2.32ZM53.57,6.93h.97c.16,0,.31-.03.46-.08.14-.05.27-.12.38-.21.11-.09.19-.2.26-.33s.09-.28.09-.46c0-.18-.03-.34-.09-.48-.06-.14-.14-.25-.25-.34-.11-.09-.23-.16-.38-.21-.15-.05-.31-.07-.48-.07h-.95v2.18Z"/>
  <path class="cls-1" d="M66.26,4.78h-1.76v5.07h-.7v-5.07h-1.76v-.62h4.22v.62Z"/>
  <path class="cls-1" d="M70.79,9.85h-.68v-2.63h-2.33v2.63h-.68v-5.69h.68v2.45h2.33v-2.45h.68v5.69Z"/>
  <path class="cls-1" d="M75.16,7.22h-2.38v2.02h2.77v.61h-3.49v-5.69h3.46v.62h-2.73v1.83h2.38v.61Z"/>
  <path class="cls-1" d="M84.79,7.34h-2.37v2.51h-.73v-5.69h3.49v.62h-2.76v1.95h2.37v.61Z"/>
  <path class="cls-1" d="M86.43,4.16h3.44v.63h-1.36v4.43h1.36v.62h-3.44v-.62h1.33v-4.43h-1.33v-.63Z"/>
  <path class="cls-1" d="M93.11,7.53h-1.14v2.32h-.72v-5.69h1.67c.27,0,.52.04.75.11s.44.18.62.32.31.32.41.53c.1.21.15.46.15.75,0,.18-.03.35-.08.51-.05.15-.13.29-.22.42s-.21.24-.34.33c-.13.1-.27.18-.43.25l1.21,2.43v.05h-.77l-1.12-2.32ZM91.98,6.93h.97c.16,0,.31-.03.46-.08.14-.05.27-.12.38-.21.11-.09.19-.2.26-.33s.09-.28.09-.46c0-.18-.03-.34-.09-.48-.06-.14-.14-.25-.25-.34-.11-.09-.23-.16-.38-.21-.15-.05-.31-.07-.48-.07h-.95v2.18Z"/>
  <path class="cls-1" d="M99.01,8.41c0-.17-.04-.32-.12-.44-.08-.12-.18-.22-.31-.3s-.26-.15-.41-.21c-.15-.05-.29-.1-.43-.15-.2-.07-.4-.14-.61-.23s-.4-.2-.57-.34c-.17-.13-.31-.29-.42-.47-.11-.18-.16-.39-.16-.64s.05-.46.16-.66c.11-.19.25-.36.42-.49.17-.13.37-.23.59-.3.22-.07.44-.1.67-.1.25,0,.49.04.71.12.23.08.43.2.61.35.18.15.32.33.43.54.11.21.16.45.17.71h-.74c-.02-.16-.06-.31-.12-.45-.06-.13-.14-.25-.24-.35-.1-.1-.22-.17-.35-.22s-.29-.08-.46-.08c-.14,0-.27.02-.4.06-.13.04-.25.1-.35.18-.1.08-.18.17-.25.29-.06.11-.09.25-.09.4,0,.16.04.3.12.42.08.11.18.21.31.29.12.08.26.14.4.2s.28.1.41.14c.14.04.28.09.43.15.14.06.28.12.41.19s.26.16.37.25c.12.09.21.19.3.31s.15.24.2.38c.05.14.07.29.07.46,0,.25-.06.48-.17.67s-.26.35-.44.47-.38.22-.61.29-.45.1-.68.1c-.25,0-.5-.04-.74-.12s-.46-.19-.65-.34-.35-.33-.47-.54c-.12-.21-.18-.45-.19-.72h.74c.02.18.07.33.14.47.07.14.17.25.28.35.12.09.25.17.4.21.15.05.31.07.49.07.14,0,.28-.02.42-.05s.26-.09.37-.16c.11-.07.19-.17.26-.28.07-.11.1-.25.1-.4Z"/>
  <path class="cls-1" d="M104.67,4.78h-1.76v5.07h-.7v-5.07h-1.76v-.62h4.22v.62Z"/>
</svg>