<?xml version="1.0" encoding="UTF-8"?>
<svg id="Layer_1" data-name="Layer 1" xmlns="http://www.w3.org/2000/svg" width="859.55" height="201.53" viewBox="0 0 859.55 201.53">
  <defs>
    <style>
      .cls-1 {
        fill: #fff;
      }
    </style>
  </defs>
  <g>
    <path d="M28.64,153.46v-1.03c11.69,0,12.38-7.74,12.38-20.46V49.78c0-12.72-.69-20.46-12.38-20.46v-1.03h39.89v1.03c-11.69,0-12.38,7.74-12.38,20.46v92.85c0,5.33,1.55,8.08,6.71,8.08h12.04c18.57,0,25.62-4.13,36.28-27.68h1.03l-4.3,30.44H28.64Z"/>
    <path d="M117.54,153.46v-1.03c7.05,0,7.57-5.85,7.57-16.85v-49.87c0-11-2.92-14.62-8.77-16.16v-1.03l22.01-6.88h.69v73.94c0,11,.52,16.85,7.57,16.85v1.03h-29.06ZM120.46,37.4c0-5.33,4.3-9.63,9.8-9.63s9.63,4.3,9.63,9.63-4.3,9.63-9.63,9.63-9.8-4.3-9.8-9.63Z"/>
    <path d="M206.43,63.36h23.73v1.03c-5.85,1.03-9.46,7.22-16.85,26.82l-23.9,63.97h-1.38l-26.82-71.36c-4.99-13.24-7.74-18.4-13.58-19.43v-1.03h31.47v1.03c-7.74.69-7.91,6.19-4.81,14.79l20.12,54.68,15.99-43.68c6.88-18.57,4.13-24.93-3.96-25.79v-1.03Z"/>
    <path d="M232.05,153.46v-1.03c7.05,0,7.57-5.85,7.57-16.85v-49.87c0-11-2.92-14.62-8.77-16.16v-1.03l22.01-6.88h.69v73.94c0,11,.52,16.85,7.57,16.85v1.03h-29.06ZM234.97,37.4c0-5.33,4.3-9.63,9.8-9.63s9.63,4.3,9.63,9.63-4.3,9.63-9.63,9.63-9.8-4.3-9.8-9.63Z"/>
    <path d="M342.44,135.58c0,11,.52,16.85,7.57,16.85v1.03h-29.06v-1.03c7.05,0,7.57-5.85,7.57-16.85v-43.68c0-13.07-4.13-21.32-16.16-21.32-7.57,0-15.82,3.78-23.21,9.63v55.37c0,11,.52,16.85,7.57,16.85v1.03h-29.06v-1.03c7.05,0,7.57-5.85,7.57-16.85v-49.87c0-11-2.92-14.62-8.77-16.16v-1.03l22.01-6.88h.69v16.85c9.11-9.46,19.95-17.2,31.47-17.2,13.41,0,21.84,9.46,21.84,26.82v47.46Z"/>
    <path d="M408.12,134.89c18.4,0,28.2,7.05,28.2,21.84,0,23.56-25.96,38-48.32,38-20.29,0-32.33-10.83-32.33-24.93,0-8.6,5.16-14.44,13.93-18.91l2.58-1.2h.69c-4.3,4.13-5.85,9.29-5.85,14.96,0,14.27,11.35,24.07,29.4,24.07s30.95-9.63,30.95-24.42c0-10.15-7.22-16.51-20.29-16.51h-34.73c-9.46,0-13.58-4.99-13.58-11,0-7.22,5.67-11.35,16.33-17.19-10.83-4.64-17.54-14.27-17.54-27.51,0-18.57,13.76-30.78,32.67-30.78,7.05,0,13.41,1.72,18.57,4.64l27.68-3.78-3.09,8.77-20.29-1.72c5.85,5.16,9.29,12.9,9.29,22.35,0,18.57-13.41,30.78-32.5,30.78-4.64,0-8.94-.69-12.9-2.06-6.36,4.3-8.25,6.88-8.25,9.8,0,2.75,1.89,4.82,6.19,4.82h33.19ZM371.33,91.73c0,16.16,6.19,28.2,18.74,28.2s18.57-12.04,18.57-28.2-6.19-28.03-18.57-28.03-18.74,11.87-18.74,28.03Z"/>
    <path d="M565.45,124.58l-3.96,28.89h-86.66v-1.03c11.69,0,12.38-7.74,12.38-20.46V49.78c0-12.72-.69-20.46-12.38-20.46v-1.03h84.08l2.24,25.79h-1.03c-8.77-19.6-14.44-23.04-33.19-23.04h-24.59v55.88h19.26c15.48,0,18.91-4.13,21.84-16.85h1.03v37.66h-1.03c-2.92-12.21-6.36-18.05-21.84-18.05h-19.26v52.96c0,5.16,1.55,8.08,6.88,8.08h20.29c18.23,0,24.76-3.1,34.91-26.14h1.03Z"/>
    <path d="M643.86,144.01c-2.75,5.16-8.43,11.52-16.16,11.52-8.6,0-10.49-8.43-10.83-14.62-7.05,8.77-17.37,14.62-27.17,14.62-11.69,0-19.95-7.39-19.95-18.05,0-12.38,9.46-20.81,30.26-26.82l16.33-4.64v-13.24c0-4.99,0-23.73-17.37-23.73-11.52,0-19.95,8.08-25.28,18.4l-1.03-.52c2.75-9.46,12.72-25.62,32.67-25.62,16.68,0,24.76,11.52,24.76,27.68v45.39c0,7.05.34,12.9,5.67,12.9,3.61,0,6.02-2.58,7.05-3.96l1.03.69ZM616.35,139.19v-30.61l-12.21,3.95c-15.82,5.16-20.46,10.49-20.46,20.46,0,9.11,5.85,14.79,13.93,14.79,6.88,0,14.1-4.47,18.74-8.6Z"/>
    <path d="M698.02,62.67l-3.44,14.79h-1.03c-3.78-2.58-8.25-4.13-11.86-4.13-4.64,0-9.11,2.58-13.76,9.11v53.13c0,11,.52,16.85,7.57,16.85v1.03h-29.06v-1.03c7.05,0,7.57-5.85,7.57-16.85v-49.87c0-11-2.92-14.62-8.77-16.16v-1.03l22.01-6.88h.69v18.4c7.05-10.83,14.62-18.74,23.39-18.74,2.06,0,4.3.34,6.71,1.38Z"/>
    <path d="M757.34,139.54c-8.08,10.14-18.4,15.99-27.34,15.99-12.72,0-20.12-7.05-20.12-21.67v-64.14h-8.94v-1.89l2.41-1.03c8.43-3.61,14.44-10.49,19.43-25.96h1.03v22.53h32.16l-2.41,6.36h-29.75v62.59c0,10.15,4.64,15.48,13.58,15.48,6.88,0,13.76-4.13,18.91-8.94l1.03.69Z"/>
    <path d="M832.31,135.58c0,11,.52,16.85,7.57,16.85v1.03h-29.06v-1.03c7.05,0,7.57-5.85,7.57-16.85v-43.68c0-13.07-3.96-21.15-15.99-21.15-7.57,0-15.82,3.61-23.21,9.29v55.54c0,11,.52,16.85,7.57,16.85v1.03h-29.06v-1.03c7.05,0,7.57-5.85,7.57-16.85V41.69c0-11-2.92-14.62-8.77-16.16v-1.03l22.01-5.5h.69v59.5c9.11-9.46,19.95-17.2,31.47-17.2,13.41,0,21.67,9.46,21.67,26.82v47.46Z"/>
  </g>
  <g>
    <path class="cls-1" d="M28.64,153.46v-1.03c11.69,0,12.38-7.74,12.38-20.46V49.78c0-12.72-.69-20.46-12.38-20.46v-1.03h39.89v1.03c-11.69,0-12.38,7.74-12.38,20.46v92.85c0,5.33,1.55,8.08,6.71,8.08h12.04c18.57,0,25.62-4.13,36.28-27.68h1.03l-4.3,30.44H28.64Z"/>
    <path class="cls-1" d="M117.54,153.46v-1.03c7.05,0,7.57-5.85,7.57-16.85v-49.87c0-11-2.92-14.62-8.77-16.16v-1.03l22.01-6.88h.69v73.94c0,11,.52,16.85,7.57,16.85v1.03h-29.06ZM120.46,37.4c0-5.33,4.3-9.63,9.8-9.63s9.63,4.3,9.63,9.63-4.3,9.63-9.63,9.63-9.8-4.3-9.8-9.63Z"/>
    <path class="cls-1" d="M206.43,63.36h23.73v1.03c-5.85,1.03-9.46,7.22-16.85,26.82l-23.9,63.97h-1.38l-26.82-71.36c-4.99-13.24-7.74-18.4-13.58-19.43v-1.03h31.47v1.03c-7.74.69-7.91,6.19-4.81,14.79l20.12,54.68,15.99-43.68c6.88-18.57,4.13-24.93-3.96-25.79v-1.03Z"/>
    <path class="cls-1" d="M232.05,153.46v-1.03c7.05,0,7.57-5.85,7.57-16.85v-49.87c0-11-2.92-14.62-8.77-16.16v-1.03l22.01-6.88h.69v73.94c0,11,.52,16.85,7.57,16.85v1.03h-29.06ZM234.97,37.4c0-5.33,4.3-9.63,9.8-9.63s9.63,4.3,9.63,9.63-4.3,9.63-9.63,9.63-9.8-4.3-9.8-9.63Z"/>
    <path class="cls-1" d="M342.44,135.58c0,11,.52,16.85,7.57,16.85v1.03h-29.06v-1.03c7.05,0,7.57-5.85,7.57-16.85v-43.68c0-13.07-4.13-21.32-16.16-21.32-7.57,0-15.82,3.78-23.21,9.63v55.37c0,11,.52,16.85,7.57,16.85v1.03h-29.06v-1.03c7.05,0,7.57-5.85,7.57-16.85v-49.87c0-11-2.92-14.62-8.77-16.16v-1.03l22.01-6.88h.69v16.85c9.11-9.46,19.95-17.2,31.47-17.2,13.41,0,21.84,9.46,21.84,26.82v47.46Z"/>
    <path class="cls-1" d="M408.12,134.89c18.4,0,28.2,7.05,28.2,21.84,0,23.56-25.96,38-48.32,38-20.29,0-32.33-10.83-32.33-24.93,0-8.6,5.16-14.44,13.93-18.91l2.58-1.2h.69c-4.3,4.13-5.85,9.29-5.85,14.96,0,14.27,11.35,24.07,29.4,24.07s30.95-9.63,30.95-24.42c0-10.15-7.22-16.51-20.29-16.51h-34.73c-9.46,0-13.58-4.99-13.58-11,0-7.22,5.67-11.35,16.33-17.19-10.83-4.64-17.54-14.27-17.54-27.51,0-18.57,13.76-30.78,32.67-30.78,7.05,0,13.41,1.72,18.57,4.64l27.68-3.78-3.09,8.77-20.29-1.72c5.85,5.16,9.29,12.9,9.29,22.35,0,18.57-13.41,30.78-32.5,30.78-4.64,0-8.94-.69-12.9-2.06-6.36,4.3-8.25,6.88-8.25,9.8,0,2.75,1.89,4.82,6.19,4.82h33.19ZM371.33,91.73c0,16.16,6.19,28.2,18.74,28.2s18.57-12.04,18.57-28.2-6.19-28.03-18.57-28.03-18.74,11.87-18.74,28.03Z"/>
    <path class="cls-1" d="M565.45,124.58l-3.96,28.89h-86.66v-1.03c11.69,0,12.38-7.74,12.38-20.46V49.78c0-12.72-.69-20.46-12.38-20.46v-1.03h84.08l2.24,25.79h-1.03c-8.77-19.6-14.44-23.04-33.19-23.04h-24.59v55.88h19.26c15.48,0,18.91-4.13,21.84-16.85h1.03v37.66h-1.03c-2.92-12.21-6.36-18.05-21.84-18.05h-19.26v52.96c0,5.16,1.55,8.08,6.88,8.08h20.29c18.23,0,24.76-3.1,34.91-26.14h1.03Z"/>
    <path class="cls-1" d="M643.86,144.01c-2.75,5.16-8.43,11.52-16.16,11.52-8.6,0-10.49-8.43-10.83-14.62-7.05,8.77-17.37,14.62-27.17,14.62-11.69,0-19.95-7.39-19.95-18.05,0-12.38,9.46-20.81,30.26-26.82l16.33-4.64v-13.24c0-4.99,0-23.73-17.37-23.73-11.52,0-19.95,8.08-25.28,18.4l-1.03-.52c2.75-9.46,12.72-25.62,32.67-25.62,16.68,0,24.76,11.52,24.76,27.68v45.39c0,7.05.34,12.9,5.67,12.9,3.61,0,6.02-2.58,7.05-3.96l1.03.69ZM616.35,139.19v-30.61l-12.21,3.95c-15.82,5.16-20.46,10.49-20.46,20.46,0,9.11,5.85,14.79,13.93,14.79,6.88,0,14.1-4.47,18.74-8.6Z"/>
    <path class="cls-1" d="M698.02,62.67l-3.44,14.79h-1.03c-3.78-2.58-8.25-4.13-11.86-4.13-4.64,0-9.11,2.58-13.76,9.11v53.13c0,11,.52,16.85,7.57,16.85v1.03h-29.06v-1.03c7.05,0,7.57-5.85,7.57-16.85v-49.87c0-11-2.92-14.62-8.77-16.16v-1.03l22.01-6.88h.69v18.4c7.05-10.83,14.62-18.74,23.39-18.74,2.06,0,4.3.34,6.71,1.38Z"/>
    <path class="cls-1" d="M757.34,139.54c-8.08,10.14-18.4,15.99-27.34,15.99-12.72,0-20.12-7.05-20.12-21.67v-64.14h-8.94v-1.89l2.41-1.03c8.43-3.61,14.44-10.49,19.43-25.96h1.03v22.53h32.16l-2.41,6.36h-29.75v62.59c0,10.15,4.64,15.48,13.58,15.48,6.88,0,13.76-4.13,18.91-8.94l1.03.69Z"/>
    <path class="cls-1" d="M832.31,135.58c0,11,.52,16.85,7.57,16.85v1.03h-29.06v-1.03c7.05,0,7.57-5.85,7.57-16.85v-43.68c0-13.07-3.96-21.15-15.99-21.15-7.57,0-15.82,3.61-23.21,9.29v55.54c0,11,.52,16.85,7.57,16.85v1.03h-29.06v-1.03c7.05,0,7.57-5.85,7.57-16.85V41.69c0-11-2.92-14.62-8.77-16.16v-1.03l22.01-5.5h.69v59.5c9.11-9.46,19.95-17.2,31.47-17.2,13.41,0,21.67,9.46,21.67,26.82v47.46Z"/>
  </g>
</svg>