<svg xmlns="http://www.w3.org/2000/svg" viewBox="0 0 452.11 84.44"><defs><style>.a{font-size:50.22px;font-family:MinionPro-Regular, Minion Pro;}.a,.l{fill:#fff;}.b{letter-spacing:-0.01em;}.c{letter-spacing:-0.01em;}.d{letter-spacing:0.01em;}.e{letter-spacing:-0.01em;}.f{letter-spacing:0.01em;}.g{letter-spacing:-0.01em;}.h{letter-spacing:0em;}.i{letter-spacing:-0.01em;}.j{fill:#159bd7;}.k{fill:#ffce06;}.l{font-size:28.7px;font-family:MinionPro-It, Minion Pro;font-style:italic;}.m{letter-spacing:-0.02em;}.n{letter-spacing:-0.02em;}.o{letter-spacing:0.01em;}.p{letter-spacing:-0.01em;}.q{letter-spacing:-0.02em;}.r{letter-spacing:-0.01em;}.s{letter-spacing:-0.02em;}.t{letter-spacing:-0.01em;}.u{letter-spacing:0em;}.v{letter-spacing:-0.02em;}.w{letter-spacing:-0.01em;}.x{letter-spacing:0em;}.y{letter-spacing:-0.01em;}.z{letter-spacing:0em;}.aa{letter-spacing:-0.01em;}.ab{letter-spacing:-0.02em;}.ac{letter-spacing:-0.02em;}.ad{letter-spacing:-0.01em;}.ae{letter-spacing:0em;}.af{letter-spacing:-0.02em;}.ag{letter-spacing:-0.01em;}</style></defs><title>si_ERC_rgb_horizontal_color-reversed</title><text class="a" transform="translate(98.29 41.53)"><tspan class="b">S</tspan><tspan x="23.5" y="0">m</tspan><tspan class="c" x="64.63" y="0">i</tspan><tspan class="d" x="77.48" y="0">t</tspan><tspan class="e" x="93.1" y="0">h</tspan><tspan class="f" x="119.52" y="0">s</tspan><tspan class="g" x="138.35" y="0">o</tspan><tspan x="163.35" y="0">n</tspan><tspan class="h" x="190.82" y="0">i</tspan><tspan class="i" x="204.43" y="0">a</tspan><tspan x="226.03" y="0">n</tspan></text><circle class="j" cx="39.94" cy="39.94" r="39.94"/><path class="k" d="M142.28,400.73a8.38,8.38,0,0,0-7.17-4.5h0l17.25-3.56L135.13,389h0a14,14,0,0,1,8.56-3.18c3.79-.05,7.08-4.68,5-8.25,0,0-.64,5.6-7.71,3.72a8.39,8.39,0,0,0-8.25,1.89h0l9.68-14.72-14.75,9.62h0a14,14,0,0,1,3.81-8.31c2.64-2.71,1.69-8.32-2.31-9.37,0,0,3.51,4.41-2.82,8.08a8.37,8.37,0,0,0-4.49,7.18h0l-3.56-17.24-3.63,17.23h0a13.85,13.85,0,0,1-3.18-8.56c0-3.8-4.69-7.09-8.26-5,0,0,5.6.63,3.72,7.71a8.36,8.36,0,0,0,1.9,8.25h0L94.1,368.4h0l7.84,12,1.78,2.73h0a13.94,13.94,0,0,1-8.31-3.81c-2.72-2.65-8.32-1.7-9.37,2.31,0,0,4.41-3.52,8.08,2.81a8.37,8.37,0,0,0,7.17,4.5h0l-17.24,3.56,17.23,3.62h0a14,14,0,0,1-8.57,3.18c-3.79.05-7.08,4.68-5,8.25,0,0,.64-5.6,7.71-3.72a8.39,8.39,0,0,0,8.26-1.89h0L94,416.7l14.74-9.62a13.89,13.89,0,0,1-3.8,8.31c-2.65,2.71-1.7,8.32,2.3,9.37,0,0-3.52-4.41,2.82-8.08a8.39,8.39,0,0,0,4.5-7.18h0l3.56,17.24,3.62-17.23h0a13.89,13.89,0,0,1,3.18,8.57c0,3.79,4.69,7.08,8.26,5,0,0-5.6-.63-3.72-7.7a8.41,8.41,0,0,0-1.89-8.26h0l14.71,9.68L137.23,409l-4.54-7h0a14,14,0,0,1,8.3,3.81c2.72,2.65,8.32,1.7,9.37-2.3C150.36,403.55,146,407.06,142.28,400.73Z" transform="translate(-78.26 -352.65)"/><text class="l" transform="translate(98.38 74.11)"><tspan class="m">E</tspan><tspan class="n" x="15.58" y="0">n</tspan><tspan class="o" x="30.14" y="0">v</tspan><tspan class="p" x="43.34" y="0">i</tspan><tspan class="q" x="50.8" y="0">r</tspan><tspan class="r" x="60.76" y="0">o</tspan><tspan class="s" x="73.96" y="0">n</tspan><tspan class="t" x="88.74" y="0">m</tspan><tspan class="u" x="111.13" y="0">e</tspan><tspan class="v" x="122.61" y="0">n</tspan><tspan class="r" x="137.24" y="0">t</tspan><tspan class="w" x="145.77" y="0">a</tspan><tspan x="159.51" y="0">l </tspan><tspan class="x" x="173.23" y="0">R</tspan><tspan class="y" x="190.34" y="0">e</tspan><tspan class="z" x="201.59" y="0">s</tspan><tspan class="aa" x="211.35" y="0">e</tspan><tspan class="ab" x="222.65" y="0">a</tspan><tspan class="ac" x="236.26" y="0">r</tspan><tspan class="ad" x="246.22" y="0">c</tspan><tspan x="256.83" y="0">h </tspan><tspan class="ae" x="278.07" y="0">C</tspan><tspan x="296.38" y="0">e</tspan><tspan class="af" x="307.86" y="0">n</tspan><tspan class="ag" x="322.5" y="0">t</tspan><tspan x="331.02" y="0">er</tspan></text></svg>